<svg version="1.1" id="Layer_1" xmlns="http://www.w3.org/2000/svg" xmlns:xlink="http://www.w3.org/1999/xlink" x="0px" y="0px"
	 width="100%" viewBox="0 0 528 560" enable-background="new 0 0 528 560" xml:space="preserve">
<path fill="#df2919" opacity="1.000000" stroke="none" 
	d="
M56.863941,272.110687 
	C42.333626,254.045853 27.989811,236.285141 13.727170,218.459488 
	C5.685089,208.408386 8.310256,200.952728 20.830446,197.783325 
	C103.736526,176.796066 186.640549,155.800720 269.542908,134.798782 
	C298.896393,127.362564 328.247772,119.918137 357.583496,112.412437 
	C359.619843,111.891434 361.451691,111.905113 363.429077,112.559814 
	C403.732330,125.903839 444.040253,139.233902 484.370972,152.494568 
	C487.497131,153.522446 489.419067,154.665344 489.441467,158.599182 
	C489.577911,182.591797 490.024078,206.582520 490.328766,230.574371 
	C490.450623,240.170380 490.312866,249.691208 482.351471,256.888458 
	C480.681458,258.398193 481.301025,260.661316 481.337402,262.612885 
	C481.530579,272.976959 480.954193,283.253204 478.008911,293.267181 
	C475.202362,302.809479 469.563873,310.477966 461.102356,317.273804 
	C471.836273,321.264404 481.704407,325.108551 491.697021,328.596191 
	C500.751099,331.756317 507.074524,337.641602 510.933777,346.328156 
	C512.578918,350.031128 513.397522,353.843353 513.381897,357.946228 
	C513.298584,379.778961 513.366699,401.612213 513.347107,423.445251 
	C513.333435,438.664642 502.948029,446.095123 488.724396,440.901123 
	C466.358276,432.733673 444.035278,424.447144 421.736542,416.097412 
	C418.355865,414.831512 415.236481,414.314850 411.586975,415.177490 
	C399.018585,418.148346 386.530701,418.085083 374.238770,413.431000 
	C359.156586,407.720428 348.244293,392.804077 347.704498,376.651398 
	C347.526459,371.323669 347.618408,365.986298 347.617645,360.653351 
	C347.616516,352.562256 347.630554,352.571533 340.071991,354.701843 
	C316.201355,361.429535 292.332092,368.162170 268.455719,374.869446 
	C240.573685,382.701965 212.722122,390.646484 184.788300,398.290100 
	C156.629868,405.995148 134.577133,395.114380 116.208557,374.589417 
	C101.404991,358.048004 92.716156,338.385529 88.676987,316.654236 
	C87.832779,312.112274 86.145912,308.278442 83.143181,304.677673 
	C74.286209,294.056671 65.747597,283.170227 56.863941,272.110687 
M34.185913,212.283844 
	C68.859039,224.082031 103.528214,235.891876 138.214096,247.652420 
	C140.549438,248.444229 142.158722,249.912567 143.685272,251.764816 
	C161.700119,273.623291 179.860764,295.362640 197.730804,317.338470 
	C200.707703,320.999329 203.262909,321.856567 207.849548,320.595276 
	C260.318573,306.167023 312.850616,291.967621 365.371704,277.729034 
	C398.775604,268.673157 432.195587,259.676727 465.594940,250.604263 
	C475.681152,247.864471 477.660950,245.350250 477.681885,235.281433 
	C477.727966,213.121262 477.703674,190.963516 476.986725,168.806931 
	C476.847229,164.496750 475.293671,162.690689 471.412262,161.424072 
	C435.652557,149.754715 399.938141,137.946503 364.230133,126.119568 
	C361.417938,125.188126 358.770477,125.155037 355.917175,125.880310 
	C329.792694,132.520996 303.641510,139.056427 277.512878,145.680908 
	C204.119263,164.288620 130.731171,182.918060 57.345158,201.555679 
	C47.479767,204.061172 37.638832,206.662949 26.453022,209.566269 
	C29.745581,210.714844 31.610989,211.365570 34.185913,212.283844 
M388.885559,284.467285 
	C338.133850,298.246582 287.382629,312.027710 236.629883,325.803253 
	C228.982086,327.879059 229.066711,327.875397 228.326569,335.619019 
	C227.206879,347.332977 224.186432,358.517334 218.543137,368.911499 
	C217.297958,371.204956 215.953094,373.444275 214.497467,375.981628 
	C217.091782,376.365021 218.945419,375.571289 220.818283,375.047028 
	C259.922913,364.101044 299.025970,353.149506 338.121307,342.170349 
	C371.771484,332.720398 405.470490,323.437500 439.035339,313.692993 
	C461.257233,307.241577 474.250763,284.182434 467.516937,263.201050 
	C441.598053,270.235413 415.642365,277.279785 388.885559,284.467285 
M468.767975,388.765533 
	C471.449280,394.126160 470.306061,397.261200 464.770081,399.137146 
	C460.203033,400.684723 455.517120,401.884308 450.962250,403.463898 
	C446.683990,404.947571 442.042786,405.506012 437.568665,408.175049 
	C439.343964,409.016144 440.497437,409.673615 441.726013,410.127869 
	C458.428040,416.303375 475.123657,422.497070 491.858398,428.582947 
	C498.899078,431.143433 500.819855,429.718781 500.838470,422.021576 
	C500.888855,401.201630 500.900116,380.381470 500.848846,359.561554 
	C500.825653,350.142151 496.777405,344.171997 488.007996,340.830627 
	C475.100677,335.912659 462.122437,331.180969 449.174103,326.370758 
	C447.292328,325.671753 445.477631,325.140778 443.365662,325.763763 
	C436.026581,327.928589 428.659363,330.005890 421.260498,331.955872 
	C418.377075,332.715790 417.188507,334.207092 417.257629,337.250458 
	C417.420135,344.408813 417.212891,351.575165 417.343140,358.734833 
	C417.411285,362.482788 416.667114,366.313446 417.904053,369.985870 
	C420.034180,370.528168 421.707092,369.640839 423.417114,369.118469 
	C433.599396,366.007965 443.763855,362.839081 453.950348,359.742584 
	C459.148956,358.162354 462.774628,359.410553 464.019012,363.075104 
	C465.304199,366.859833 463.215759,369.787048 457.877197,371.529144 
	C452.499786,373.283997 447.135681,375.096039 441.699188,376.650330 
	C428.597534,380.396149 415.905945,385.575531 402.362793,387.785187 
	C385.843414,390.480438 375.267761,382.023438 374.695892,365.463409 
	C374.540771,360.971039 374.668304,356.469513 374.600922,351.973175 
	C374.571564,350.014374 374.869202,347.949554 373.315704,346.177917 
	C370.449127,345.737823 367.891174,347.259003 365.148499,347.693542 
	C361.355652,348.294495 359.946655,350.383698 360.095764,354.255646 
	C360.371155,361.407227 359.961151,368.588531 360.324005,375.732666 
	C360.995758,388.957367 369.205078,398.943665 381.884552,402.729858 
	C390.758575,405.379730 399.667328,405.109863 408.503326,402.932861 
	C425.476288,398.751068 441.928558,392.797455 458.678192,387.848572 
	C461.883392,386.901520 465.092865,385.693207 468.767975,388.765533 
M127.063675,346.377197 
	C108.000565,316.979340 104.497246,287.347748 125.775063,257.355469 
	C124.698975,256.121887 123.188332,255.839569 121.793510,255.355957 
	C107.790733,250.500763 107.140839,250.335358 103.372307,264.769348 
	C92.789268,305.303864 101.783035,341.190033 130.894745,371.513702 
	C139.339722,380.310242 149.818497,386.301361 162.262741,387.695374 
	C183.240707,390.045288 200.574020,379.171967 209.769028,357.954285 
	C213.271179,349.872955 215.681122,341.472931 215.631622,332.511749 
	C205.618637,332.269958 201.114059,334.968842 197.593231,343.063995 
	C187.348511,366.618866 163.543991,374.301025 142.409973,360.836304 
	C136.596466,357.132416 131.668076,352.441315 127.063675,346.377197 
M183.207703,329.551880 
	C179.063126,338.870270 172.628815,345.650208 161.880417,345.792938 
	C152.306122,345.920135 145.263214,340.631348 140.165863,332.773041 
	C138.902969,330.826141 137.595993,328.393768 140.202637,326.568726 
	C142.936996,324.654236 144.393997,326.894104 145.743713,328.888794 
	C146.210266,329.578278 146.663422,330.279266 147.169220,330.939362 
	C156.257828,342.800415 170.598648,341.174591 176.539444,327.531799 
	C177.588821,325.121918 177.920929,322.409729 178.765442,319.898071 
	C179.914505,316.480591 178.720734,313.945770 176.511841,311.300842 
	C165.091690,297.626526 153.845566,283.807037 142.476974,270.089355 
	C140.597183,267.821167 139.064819,265.168701 136.299576,263.591705 
	C132.548355,265.333740 130.609543,268.685150 128.669815,271.941711 
	C115.856606,293.453339 121.545540,327.564636 141.049362,346.512146 
	C159.323700,364.265228 181.131104,359.169189 189.622482,335.161346 
	C191.685333,329.328979 191.130234,327.712555 185.782440,324.044434 
	C184.128265,325.218323 184.359253,327.325134 183.207703,329.551880 
M86.973236,280.703217 
	C88.295135,269.103455 91.718521,258.065094 96.768745,246.905426 
	C76.747345,240.099091 57.392685,233.519409 38.038021,226.939713 
	C37.843277,227.245605 37.648537,227.551483 37.453793,227.857376 
	C53.521881,247.843536 69.589973,267.829712 86.383369,288.718018 
	C86.595711,285.440460 86.721916,283.492432 86.973236,280.703217 
M387.224304,344.140533 
	C387.264923,351.281036 387.106873,358.429657 387.398560,365.559906 
	C387.731506,373.699402 393.894379,377.603394 401.650818,375.051666 
	C403.708740,374.374664 404.659241,373.286865 404.652710,371.135071 
	C404.621979,361.005127 404.653259,350.874939 404.635742,340.744934 
	C404.633484,339.438812 404.578339,337.278564 403.065308,337.629456 
	C397.618958,338.892487 391.484528,338.486786 387.224304,344.140533 
z"/>
<path fill="#df2919" opacity="1.000000" stroke="none" 
	d="
M422.223816,185.335693 
	C367.194580,200.038498 312.568481,214.662659 257.941498,229.283554 
	C233.355850,235.863922 208.768478,242.437836 184.181610,249.013702 
	C183.377197,249.228851 182.570633,249.436081 181.763977,249.642715 
	C175.914047,251.141327 172.588654,249.926346 171.445923,245.874176 
	C170.319321,241.879288 172.500275,239.180679 178.512161,237.567352 
	C234.254623,222.608551 290.009094,207.694489 345.755249,192.749527 
	C374.026550,185.170288 402.287659,177.553162 430.554810,169.958405 
	C431.840759,169.612900 433.124451,169.181427 434.437042,169.027359 
	C438.061462,168.601913 440.702728,170.067047 441.671783,173.648819 
	C442.664154,177.316711 440.905212,179.965057 437.526123,181.087891 
	C432.637726,182.712265 427.600403,183.888382 422.223816,185.335693 
z"/>
</svg>