<svg version="1.1" id="Layer_1" xmlns="http://www.w3.org/2000/svg" xmlns:xlink="http://www.w3.org/1999/xlink" x="0px" y="0px"
	 width="100%" viewBox="0 0 512 512" enable-background="new 0 0 512 512" xml:space="preserve">
<path fill="#df2919" opacity="1.000000" stroke="none" 
	d="
M227.468658,513.000000 
	C217.901352,511.154785 208.749649,509.536743 199.713028,507.425995 
	C155.027176,496.988464 116.274429,475.570129 83.041565,444.020813 
	C81.756363,442.800690 80.748444,441.090820 78.641251,441.128174 
	C77.015488,442.377960 77.366959,444.149048 77.342941,445.760590 
	C77.280869,449.925964 77.332489,454.092896 77.296562,458.258850 
	C77.196541,469.857269 69.434464,478.134216 58.645653,478.173584 
	C48.322327,478.211212 40.035042,469.891113 39.846573,458.740601 
	C39.612846,444.912720 39.772102,431.078094 39.765865,417.246399 
	C39.761578,407.747437 39.720554,398.248260 39.775291,388.749603 
	C39.845150,376.628113 47.421227,368.287415 59.512165,368.126099 
	C83.005219,367.812592 106.512062,367.680908 130.000137,368.140656 
	C145.989441,368.453644 154.649811,383.227325 147.142303,396.354858 
	C143.827530,402.151062 138.678375,405.237366 131.980057,405.332184 
	C123.149361,405.457214 114.315750,405.366211 105.483543,405.403656 
	C103.698753,405.411224 101.813461,405.057312 100.183792,406.310089 
	C100.033806,409.148804 102.208908,410.470703 103.770058,412.040466 
	C137.754669,446.212677 178.372223,468.125275 226.194962,474.398132 
	C306.775208,484.967712 373.752533,458.549133 426.172974,396.463043 
	C452.732727,365.006012 468.020325,328.131012 473.402405,287.458923 
	C476.828766,261.566101 475.259064,235.667648 469.363586,210.098892 
	C466.847473,199.186478 472.806183,189.892212 483.445587,187.360123 
	C493.108215,185.060516 502.817810,191.005203 505.388092,201.384537 
	C511.758484,227.109329 513.541626,253.201828 511.557556,279.643677 
	C508.940582,314.520874 499.748535,347.548309 483.018860,378.161407 
	C443.856689,449.822968 384.192017,494.096985 303.951782,510.261963 
	C299.229553,511.213318 294.449432,511.877197 289.348145,512.837402 
	C268.645782,513.000000 248.291550,513.000000 227.468658,513.000000 
z"/>
<path fill="#df2919" opacity="1.000000" stroke="none" 
	d="
M417.000000,151.982788 
	C406.500916,151.977417 396.494934,152.213272 386.504333,151.922165 
	C373.074921,151.530823 365.091797,142.769974 366.595917,130.582748 
	C367.730621,121.388756 374.894623,114.794777 384.168427,114.694305 
	C394.956787,114.577423 405.747406,114.667046 417.191559,114.667046 
	C415.967743,111.613556 414.208008,109.912674 412.508942,108.193596 
	C380.025635,75.327530 341.096893,54.561954 295.596558,46.421993 
	C179.767746,25.700344 67.857803,102.449455 45.153488,217.931015 
	C39.152283,248.455078 39.898296,278.780334 46.605728,309.069641 
	C49.203346,320.799896 43.625954,330.017334 32.518372,332.734100 
	C22.539116,335.174896 13.030189,328.967499 10.352714,317.698151 
	C3.517129,288.927582 1.984236,259.878540 5.410810,230.443909 
	C9.217425,197.744690 18.914408,166.977676 34.865742,138.312515 
	C66.725296,81.059700 113.526688,41.223999 175.463226,19.448454 
	C205.342194,8.943661 236.211853,4.386861 267.778564,5.847407 
	C330.989410,8.772085 385.828308,31.974924 432.154724,75.161850 
	C433.937836,76.824142 435.400269,78.921165 438.721741,80.064178 
	C438.721741,73.273476 438.543457,66.852066 438.769257,60.444889 
	C439.021484,53.288212 442.106018,47.584095 448.612823,44.172211 
	C455.275635,40.678520 461.836914,41.292637 468.015503,45.397697 
	C473.803802,49.243496 476.080627,55.132492 476.122406,61.731968 
	C476.271179,85.229179 476.309723,108.728836 476.131836,132.225616 
	C476.041016,144.221359 467.808228,151.799744 454.996033,151.965469 
	C442.499329,152.127121 429.998810,151.993393 417.000000,151.982788 
z"/>
<path fill="white" opacity="1.000000" stroke="none" 
	d="
M136.417114,178.349716 
	C146.108658,171.799255 156.554504,168.803116 167.809586,168.791565 
	C227.950760,168.729874 288.092102,168.675613 348.233215,168.757629 
	C379.281219,168.799988 403.344269,193.040146 403.348083,223.958130 
	C403.351105,248.447800 403.370667,272.937500 403.340820,297.427155 
	C403.305908,326.042267 379.506683,350.445282 350.860535,351.237976 
	C346.199036,351.367004 341.517670,351.518158 336.871155,351.236298 
	C332.395477,350.964844 331.083649,352.842712 331.186310,357.092133 
	C331.407562,366.249420 331.205780,375.416229 331.247681,384.578766 
	C331.283722,392.458679 328.781708,399.110901 321.612915,403.056305 
	C314.345062,407.056274 307.340912,405.779236 300.375641,401.560730 
	C273.595673,385.341492 246.695755,369.320465 219.874054,353.169861 
	C217.475281,351.725464 215.012451,351.252777 212.275696,351.263855 
	C197.948639,351.321808 183.621185,351.316406 169.293961,351.290558 
	C140.342880,351.238342 118.733833,333.456512 113.192230,305.057037 
	C112.718994,302.631775 112.683777,300.094116 112.680229,297.608307 
	C112.645775,273.451904 112.799789,249.294342 112.619583,225.139221 
	C112.473015,205.492065 120.321350,190.068192 136.417114,178.349716 
M344.374023,206.286758 
	C285.886780,206.279739 227.399551,206.257812 168.912308,206.278183 
	C157.124084,206.282288 150.094223,213.087143 150.044037,224.729187 
	C149.942764,248.223618 149.915604,271.719299 150.047043,295.213409 
	C150.112762,306.959412 157.138168,313.691376 168.887802,313.712952 
	C185.384171,313.743256 201.881561,313.821381 218.376556,313.667603 
	C224.077713,313.614441 229.119827,315.004639 233.990234,317.967316 
	C251.493393,328.614410 269.095306,339.099579 286.695526,349.586151 
	C288.610077,350.726929 290.398254,352.453491 293.677734,351.942078 
	C293.677734,346.341583 293.669617,340.734497 293.679321,335.127441 
	C293.703857,320.925537 300.989685,313.717957 315.325745,313.716766 
	C325.323578,313.715942 335.321411,313.741821 345.319244,313.732697 
	C359.622284,313.719635 366.013306,307.370941 366.042114,293.013550 
	C366.086273,271.018433 366.083771,249.023102 366.049713,227.027939 
	C366.027496,212.692078 359.686981,206.389099 344.374023,206.286758 
z"/>
<path fill="white" opacity="1.000000" stroke="none" 
	d="
M218.951599,270.755920 
	C213.650253,277.272156 207.189606,280.028320 199.275192,278.173004 
	C192.220825,276.519318 187.664566,271.934937 185.681427,264.941681 
	C183.523346,257.331421 186.468597,249.154327 192.870010,244.702545 
	C199.588898,240.029984 208.292206,240.166855 214.790665,245.047287 
	C221.230530,249.883713 223.859894,257.836731 221.424088,265.479218 
	C220.874969,267.202087 219.933502,268.799927 218.951599,270.755920 
z"/>
<path fill="white" opacity="1.000000" stroke="none" 
	d="
M311.302979,241.408234 
	C322.294495,242.041855 328.462097,246.942474 330.671906,256.432007 
	C332.371155,263.729218 328.662811,272.131683 322.007050,276.065094 
	C315.581848,279.862213 307.260529,279.459412 301.329224,275.064148 
	C295.329681,270.618317 292.415985,262.614105 294.254486,255.629135 
	C296.401855,247.470734 302.001038,242.705170 311.302979,241.408234 
z"/>
<path fill="white" opacity="1.000000" stroke="none" 
	d="
M273.551300,270.335205 
	C267.232697,278.347076 258.546417,280.725647 250.305344,276.956360 
	C242.364410,273.324371 238.361938,265.504547 239.758469,256.350464 
	C240.948700,248.548462 248.096344,241.997360 256.354218,241.470261 
	C263.299652,241.026947 269.234833,243.392624 273.199677,249.272522 
	C277.711029,255.962875 277.687622,262.994263 273.551300,270.335205 
z"/>
</svg>