<svg version="1.1" id="Layer_1" xmlns="http://www.w3.org/2000/svg" xmlns:xlink="http://www.w3.org/1999/xlink" x="0px" y="0px"
	 width="100%" viewBox="0 0 544 576" enable-background="new 0 0 544 576" xml:space="preserve">
<path fill="#9C9C9C" opacity="1.000000" stroke="none" 
	d="
M419.075409,444.305420 
	C411.351196,446.118042 403.957245,447.265503 396.422974,447.269257 
	C366.593475,447.284149 336.763947,447.282928 306.934448,447.273132 
	C299.363129,447.270660 298.760071,446.651917 298.758453,438.931305 
	C298.745453,375.772125 298.709442,312.612885 298.808044,249.453903 
	C298.814301,245.461868 297.805573,242.772659 294.561432,240.145264 
	C283.463654,231.157288 280.444672,216.205124 286.678284,203.562744 
	C292.877228,190.990662 306.989471,184.564941 321.149597,187.866943 
	C334.060699,190.877686 343.956573,203.449387 343.809631,217.297592 
	C343.706451,227.024139 339.476990,235.045364 331.786346,240.963364 
	C329.053650,243.066177 328.290405,245.381073 328.294525,248.617279 
	C328.363251,302.610779 328.342651,356.604431 328.355255,410.598022 
	C328.356720,416.806610 329.087585,417.484100 335.181885,417.614197 
	C355.500702,418.048065 375.819550,417.473145 396.138306,417.485168 
	C433.235779,417.507141 466.036041,388.815491 471.455200,351.944763 
	C477.219940,312.722870 454.365051,277.706696 419.018799,266.139587 
	C411.678314,263.737396 407.601044,259.444336 405.140686,252.024796 
	C388.420410,201.601959 353.542572,171.427277 301.129333,163.844284 
	C264.821625,158.591385 231.836975,168.767151 203.654221,193.005142 
	C198.445511,197.484756 193.730789,202.386795 189.302414,207.587479 
	C185.169235,212.441467 180.156845,214.150085 173.767456,213.500641 
	C153.254532,211.415588 137.450043,222.779831 133.695892,241.958527 
	C132.952484,245.756287 133.054276,249.612808 133.497589,253.411438 
	C134.601746,262.872101 131.778702,268.124115 122.759430,271.732300 
	C103.182983,279.563873 89.035271,293.004272 81.134392,312.523407 
	C63.996338,354.862946 88.923386,403.245697 136.646912,411.448090 
	C152.109070,414.105621 167.911652,412.430481 183.559174,412.722809 
	C186.869812,412.784668 187.955566,411.063141 187.952301,408.078979 
	C187.933884,391.247925 187.885544,374.416565 187.987366,357.586151 
	C188.006897,354.358643 185.854950,353.013428 183.859421,351.239655 
	C174.283463,342.727753 170.487762,332.169281 174.177277,319.763885 
	C177.701508,307.914276 185.797806,300.606232 198.215454,298.545013 
	C211.566452,296.328857 224.593918,303.209351 230.269089,315.416718 
	C235.906113,327.542023 232.906845,342.349121 222.592545,350.834412 
	C219.316055,353.529907 217.806763,356.237885 217.755692,360.479095 
	C217.539093,378.463348 217.139816,396.434265 217.941483,414.425018 
	C218.303696,422.553589 217.545822,430.731415 217.313705,438.887390 
	C217.207642,442.614594 214.606216,443.076904 211.767883,443.072876 
	C204.935623,443.063171 198.084335,443.276428 191.275040,442.850800 
	C173.310516,441.727966 155.299698,443.093445 137.340408,441.451843 
	C95.159973,437.596252 57.900074,404.667450 48.704769,362.856659 
	C38.713303,317.425781 58.291176,273.191010 98.776100,250.199600 
	C102.277786,248.210983 103.583954,246.023178 103.798592,242.016541 
	C105.399521,212.132141 132.465088,185.277893 162.405579,183.670929 
	C168.059967,183.367462 172.442078,181.709091 176.800735,177.394409 
	C202.696991,151.759323 234.009659,137.349411 270.322693,133.582443 
	C337.660217,126.597092 405.321503,165.601471 430.766418,234.848969 
	C431.924438,238.000443 433.701447,239.561127 436.640289,240.922043 
	C474.597931,258.499481 496.758728,287.828979 501.358490,329.637604 
	C506.938019,380.351807 474.583618,426.477234 428.609528,441.683258 
	C425.614563,442.673859 422.531342,443.397614 419.075409,444.305420 
M189.625107,323.221222 
	C187.394531,328.775513 188.567368,333.780914 192.637161,337.892059 
	C196.299713,341.591827 200.780075,343.664490 206.200989,342.112305 
	C213.029419,340.157043 217.442154,334.396484 217.221481,327.813599 
	C217.005768,321.378540 212.565323,315.897339 206.410431,314.468689 
	C199.550018,312.876251 193.637802,315.765503 189.625107,323.221222 
M318.726044,230.419479 
	C326.492920,226.127594 329.535004,219.489868 326.973541,212.424011 
	C324.318207,205.099289 316.737091,201.308701 309.269287,203.571762 
	C302.295502,205.685150 297.973267,213.594482 299.792542,220.538177 
	C301.743103,227.983032 310.471283,233.691162 318.726044,230.419479 
z"/>
<path fill="#9C9C9C" opacity="1.000000" stroke="none" 
	d="
M272.160431,349.000000 
	C272.163696,377.485352 272.167480,405.470703 272.169891,433.456055 
	C272.170715,442.788025 271.786652,443.162201 262.219666,443.165070 
	C257.888611,443.166382 253.556946,443.208130 249.226624,443.150574 
	C243.414139,443.073364 242.637451,442.303864 242.632019,436.427429 
	C242.605362,407.609314 242.610168,378.791199 242.604950,349.973083 
	C242.602142,334.481201 242.482880,318.987823 242.676102,303.498352 
	C242.730255,299.157074 241.563080,296.229095 237.991440,293.362122 
	C226.730255,284.322693 223.830704,268.946899 230.409485,256.360901 
	C236.902283,243.939484 251.185913,237.602936 264.667450,241.163345 
	C278.479584,244.811081 287.865631,257.286224 287.250244,271.579254 
	C286.856354,280.727356 282.901703,288.312683 275.668488,293.890564 
	C272.939545,295.994995 272.138092,298.290100 272.157410,301.524872 
	C272.250946,317.182678 272.175781,332.841522 272.160431,349.000000 
M271.327423,272.018646 
	C271.379303,264.439880 268.219269,259.322357 262.073761,257.032898 
	C256.677582,255.022614 250.251343,256.602264 246.539032,260.851624 
	C242.860901,265.061859 241.966919,271.914948 244.465607,276.746063 
	C246.954208,281.557678 252.900543,285.021942 257.989288,284.624817 
	C264.344971,284.128815 269.018005,279.903534 271.327423,272.018646 
z"/>
</svg>