<svg version="1.1" id="Layer_1" xmlns="http://www.w3.org/2000/svg" xmlns:xlink="http://www.w3.org/1999/xlink" x="0px" y="0px"
	 width="100%" viewBox="0 0 544 576" enable-background="new 0 0 544 576" xml:space="preserve">
<path fill="#9C9C9C" opacity="1.000000" stroke="none" 
	d="
M273.932373,76.053444 
	C265.101837,67.188705 256.460419,58.632469 247.942612,49.954857 
	C241.546814,43.439045 242.735062,37.093288 251.134659,33.494736 
	C296.544830,14.040161 347.993835,41.524502 353.492310,93.033615 
	C354.338806,100.963425 353.799072,108.640396 352.221405,116.313263 
	C351.626526,119.206566 352.014893,121.248184 354.234680,123.385651 
	C361.555206,130.434723 368.725647,137.644241 375.805481,144.936081 
	C377.975586,147.171173 380.338440,147.945602 383.359131,147.928314 
	C398.689117,147.840530 414.019958,147.864334 429.350433,147.892654 
	C443.248596,147.918335 451.082062,155.670074 451.161896,169.530075 
	C451.228119,181.027557 451.275024,192.526886 451.130035,204.022873 
	C451.081909,207.838486 452.351715,208.773834 456.178192,208.396835 
	C492.569885,204.811356 527.884155,230.763702 533.437683,267.871277 
	C535.572205,282.134216 533.947632,295.729858 528.113098,308.830658 
	C524.016541,318.029144 517.309570,319.228516 510.131531,312.132843 
	C501.007080,303.113190 491.870514,294.102448 482.926819,284.905365 
	C480.369568,282.275665 478.671844,282.065155 476.051300,284.787750 
	C472.254089,288.732880 468.043365,292.280060 464.509979,295.535461 
	C465.081970,299.162140 467.084839,300.328156 468.550201,301.812592 
	C477.212189,310.587128 485.975677,319.261383 494.648041,328.025757 
	C501.798340,335.251923 500.477905,341.759735 491.068665,345.786224 
	C478.596985,351.123230 465.622040,353.470367 452.493439,351.806488 
	C450.839172,353.097229 451.012573,354.566071 450.737915,355.813141 
	C448.442566,366.235504 441.894928,372.024109 431.112061,372.087463 
	C426.390808,372.115204 424.697021,373.664001 425.340118,378.150787 
	C425.410339,378.640442 425.338745,379.149384 425.347260,379.649109 
	C425.409576,383.311127 424.582092,387.295593 425.759216,390.555939 
	C427.342194,394.940552 432.235321,392.191864 435.557220,393.217529 
	C444.126648,395.863403 450.059265,402.628021 450.142700,411.919983 
	C450.334259,433.247559 450.369141,454.579742 450.141754,475.906616 
	C450.014099,487.878296 441.830017,495.336487 429.411011,495.339783 
	C356.924347,495.358917 284.437683,495.337036 211.951004,495.327789 
	C205.009201,495.326904 205.051605,495.327850 204.245071,502.328583 
	C203.750443,506.621887 201.788406,510.218567 198.726288,513.258240 
	C193.050156,518.892944 187.422226,524.576111 181.746338,530.211060 
	C173.827927,538.072266 163.767456,538.139771 155.505417,530.473083 
	C152.639221,527.813477 150.296097,524.525940 146.579620,522.354675 
	C144.454208,526.204956 145.423813,529.914368 145.379135,533.443787 
	C145.227570,545.409180 137.723679,553.178528 125.808281,553.310547 
	C118.143974,553.395447 110.476295,553.431152 102.813141,553.305664 
	C91.958252,553.127930 84.019760,545.176086 83.713425,534.267273 
	C83.598610,530.178833 83.694832,526.084473 83.694832,521.452637 
	C79.368675,523.029358 77.489227,526.116333 75.072769,528.470276 
	C65.780807,537.521912 55.835220,537.583740 46.578354,528.441895 
	C41.361969,523.290222 36.121300,518.158936 31.039349,512.876404 
	C22.640148,504.145569 22.770267,494.211060 31.183065,485.420807 
	C33.558319,482.939026 36.435150,480.884430 38.318787,477.577545 
	C35.682041,475.361023 32.753040,476.385895 30.128294,476.364777 
	C14.551980,476.239594 7.668319,469.385986 7.652093,453.723969 
	C7.645188,447.058533 7.561400,440.391296 7.685314,433.728058 
	C7.894125,422.499573 15.850515,414.807861 27.108812,414.645142 
	C30.712305,414.593079 34.370445,415.142792 38.302753,414.124817 
	C37.259544,409.669586 33.451981,407.761597 30.903446,404.944153 
	C25.980366,399.501617 22.461819,392.945251 26.054796,386.328094 
	C32.936401,373.654297 42.874031,363.160065 55.851849,356.610413 
	C62.338165,353.336884 68.801697,356.761963 74.106728,361.451080 
	C76.925072,363.942169 79.118706,367.169861 82.910484,369.187622 
	C84.265770,365.682953 83.617599,362.349487 83.636665,359.128143 
	C83.658920,355.369873 84.094337,351.638458 86.205376,348.605591 
	C88.772217,344.917847 89.142189,341.010498 89.135078,336.768188 
	C89.109398,321.445526 89.189255,306.122131 89.326241,290.799927 
	C89.440216,278.051849 96.647209,270.800568 109.587524,270.730042 
	C113.591782,270.708221 115.103050,269.271912 114.692291,265.454193 
	C114.639153,264.960327 114.706871,264.454712 114.690872,263.955414 
	C114.568527,260.137665 115.539154,255.788757 114.019760,252.643829 
	C112.313759,249.112640 107.371201,251.058746 103.919823,250.214737 
	C96.262848,248.342255 90.447441,242.173264 89.616386,234.112259 
	C88.503334,223.315979 89.233017,212.467941 89.100380,201.643768 
	C88.969727,190.980545 88.934418,180.313232 89.068062,169.650360 
	C89.249290,155.190811 96.696152,147.927505 111.191521,147.914124 
	C138.186539,147.889206 165.181595,147.916687 192.176636,147.917969 
	C201.174973,147.918396 210.173523,147.934555 219.171494,147.873825 
	C220.944763,147.861862 222.807877,148.263763 225.020767,146.996185 
	C223.558609,144.763428 222.082184,142.620911 220.718338,140.408997 
	C206.829651,117.884026 204.319489,94.360413 214.817047,69.831978 
	C218.375626,61.517056 225.284775,60.450413 231.733078,66.906288 
	C240.918259,76.102272 250.243637,85.163811 259.225800,94.553795 
	C262.108429,97.567329 264.002838,97.200134 266.479126,94.478241 
	C268.831787,91.892204 271.373108,89.477959 273.827789,86.984573 
	C279.776855,80.941765 279.872437,82.686760 273.932373,76.053444 
M353.838562,149.661407 
	C348.309174,144.115479 342.999207,138.325638 337.185577,133.095673 
	C331.900543,128.341232 330.940308,123.336365 333.016754,116.570869 
	C342.450348,85.834160 324.430206,54.772655 293.298431,47.903561 
	C286.938538,46.500275 280.333038,45.230007 273.284485,48.121235 
	C274.945984,49.968582 276.205109,51.485634 277.585693,52.882679 
	C282.738495,58.096992 288.038452,63.170082 293.082092,68.486984 
	C299.687347,75.450142 300.485565,85.839935 294.811218,91.559639 
	C288.245087,98.178246 281.528656,104.653748 274.729431,111.033600 
	C266.813934,118.460854 256.617554,118.310234 248.784622,110.719124 
	C243.281372,105.385780 237.962967,99.861946 232.476532,94.510811 
	C231.271942,93.335915 230.379883,91.389458 227.683853,91.878357 
	C226.796555,97.597481 226.656769,103.413048 227.791611,109.084381 
	C234.203476,141.127274 264.634827,160.171524 295.914886,150.967209 
	C304.178253,148.535660 309.162964,150.377747 314.784302,156.069458 
	C344.518036,186.175201 374.415314,216.122940 404.569794,245.806519 
	C410.122131,251.272171 411.196320,256.564056 409.150238,263.702393 
	C402.098328,288.304962 411.386627,312.149414 433.072479,325.457397 
	C444.075836,332.209900 456.052643,334.308289 468.972900,332.253387 
	C468.229584,329.768219 466.577118,328.554749 465.199646,327.163635 
	C459.924133,321.836090 454.510712,316.642334 449.319733,311.234528 
	C441.997864,303.606873 441.492615,293.587311 448.418945,286.036652 
	C454.494415,279.413544 460.869354,273.020782 467.538055,266.997955 
	C475.121704,260.148773 485.509918,260.834991 492.754181,268.071808 
	C498.765472,274.076904 504.758789,280.100098 510.799042,286.075897 
	C511.680634,286.948090 512.354248,288.337952 514.127869,287.967834 
	C515.308655,285.563293 515.611450,282.975708 515.641907,280.302704 
	C516.054138,244.135361 480.742310,218.782974 445.391022,230.112198 
	C439.366150,232.043045 435.082031,231.046112 430.636017,226.554825 
	C405.317169,200.977966 379.790131,175.607239 353.838562,149.661407 
M244.500244,288.412048 
	C201.186920,288.410645 157.873581,288.412079 114.560257,288.402100 
	C111.333969,288.401337 108.162315,287.934479 108.232323,292.967041 
	C108.424644,306.791412 108.378075,320.620483 108.274338,334.446564 
	C108.249077,337.813660 109.702011,338.779877 112.811028,338.674011 
	C117.303261,338.521057 121.807121,338.743988 126.302872,338.652313 
	C134.263840,338.489899 140.191055,341.988861 143.811691,348.892059 
	C145.369308,351.861816 147.147308,352.866730 150.389801,352.864197 
	C242.014465,352.792389 333.639221,352.810699 425.263916,352.758057 
	C427.212860,352.756958 429.912445,353.739227 430.616425,350.594025 
	C431.312866,347.482391 430.404785,345.262024 427.222809,343.780945 
	C420.223877,340.523071 413.910950,336.201630 408.798096,330.322174 
	C407.802551,329.177368 406.867584,328.548889 405.389801,329.378906 
	C403.076752,330.678070 400.522003,330.313507 398.045990,330.316406 
	C374.056976,330.344360 350.067963,330.343384 326.078918,330.342346 
	C320.081787,330.342072 314.080933,330.436432 308.088562,330.259064 
	C302.356598,330.089325 298.931824,326.680573 298.708954,321.327881 
	C298.482727,315.894745 301.455017,312.286804 307.110718,311.429077 
	C309.401306,311.081665 311.754852,311.047729 314.079956,311.045013 
	C339.068481,311.015900 364.057129,311.041931 389.045532,310.979401 
	C391.067780,310.974335 393.384644,311.758881 395.003235,309.860474 
	C393.379608,304.637817 391.176331,299.660706 390.402191,294.470428 
	C389.619171,289.220612 387.138763,288.313904 382.437408,288.328766 
	C336.792053,288.472931 291.146088,288.413147 244.500244,288.412048 
M45.864494,393.737549 
	C47.100163,395.088989 48.313015,396.462158 49.575085,397.788483 
	C59.491089,408.208923 64.764214,408.248932 55.478710,425.836853 
	C55.250412,426.269257 55.255203,426.821045 55.046032,427.267883 
	C52.973381,431.695251 49.771484,434.401093 44.607269,434.430573 
	C40.113895,434.456238 35.622677,434.748596 31.128937,434.859772 
	C28.227982,434.931549 26.930136,436.346954 26.963655,439.233948 
	C27.019747,444.065277 27.024632,448.898590 26.950392,453.729492 
	C26.904696,456.702942 28.279087,457.941650 31.198589,457.888214 
	C35.196053,457.814972 39.198318,457.813202 43.194824,457.919769 
	C50.616829,458.117676 53.063477,460.056274 55.549316,467.071899 
	C56.435852,469.573883 57.726078,471.932861 58.833149,474.356598 
	C61.352409,479.872070 60.777611,483.639130 56.602570,488.007538 
	C53.494747,491.259247 50.285309,494.413727 47.130806,497.621033 
	C45.778667,498.995819 44.545826,500.434204 46.400311,502.292694 
	C51.070568,506.973114 55.761959,511.632477 61.727776,517.579041 
	C63.584621,515.026184 65.148697,512.862366 66.726723,510.708710 
	C73.836403,501.005859 82.302742,497.620026 93.103279,505.034515 
	C93.503555,505.309296 94.022247,505.419769 94.494888,505.579803 
	C100.277992,507.538208 102.973076,511.740448 103.132912,517.673218 
	C103.236092,521.502991 103.316261,525.346069 103.113533,529.167664 
	C102.914383,532.921936 104.594917,534.203918 108.151672,534.105896 
	C112.979477,533.972778 117.825546,533.915649 122.642784,534.192078 
	C125.860596,534.376709 126.767426,533.053223 126.658485,530.134338 
	C126.528069,526.640015 126.626213,523.137024 126.630333,519.637817 
	C126.642616,509.188599 126.924484,508.792938 136.458282,504.984955 
	C138.312805,504.244232 140.100143,503.336334 141.925430,502.521149 
	C148.710419,499.490875 151.730133,500.042267 157.124664,505.347015 
	C160.875183,509.035034 164.594223,512.755127 167.623947,515.762695 
	C173.414566,510.034760 178.673920,504.832367 184.658325,498.912781 
	C180.849365,495.344818 176.662964,491.557861 172.634125,487.610077 
	C168.925247,483.975800 167.897888,479.763824 170.307327,474.890594 
	C171.707809,472.058044 173.007248,469.154419 174.075821,466.183380 
	C176.087967,460.588806 180.112778,458.029144 185.871155,457.924744 
	C190.035690,457.849182 194.202759,457.839813 198.367722,457.886932 
	C201.198013,457.918915 202.737427,456.877960 202.665359,453.794525 
	C202.556381,449.131470 202.593460,444.463593 202.645554,439.798645 
	C202.687912,436.005951 200.840088,434.362518 197.110092,434.423645 
	C192.612610,434.497406 188.110245,434.502838 183.614349,434.379486 
	C179.177856,434.257782 176.126053,432.152100 174.575562,427.837585 
	C173.395096,424.552734 171.947479,421.361664 170.563995,418.152466 
	C168.066849,412.360016 168.578278,409.092285 172.928329,404.575623 
	C176.048325,401.336090 179.248703,398.172974 182.452393,395.015533 
	C183.898422,393.590363 184.897751,392.176880 183.067917,390.369568 
	C178.361740,385.721252 173.645355,381.083282 168.886749,376.395538 
	C163.787720,380.118896 160.236496,384.574860 156.116959,388.420898 
	C152.867661,391.454407 148.997162,393.447571 144.783127,391.187012 
	C138.325638,387.723053 129.208313,387.837982 126.821716,378.614044 
	C126.455582,377.198975 126.660599,375.629822 126.645363,374.131500 
	C126.609779,370.632874 126.647888,367.132843 126.567680,363.635406 
	C126.491066,360.294464 125.003807,358.337250 121.362328,358.403381 
	C116.698273,358.488129 112.028732,358.530853 107.367065,358.398041 
	C104.025017,358.302856 103.022110,359.904205 103.114815,362.986176 
	C103.244980,367.314117 103.280846,371.657257 103.066154,375.979462 
	C102.881241,379.702179 102.011795,383.246674 98.490677,385.467407 
	C83.851593,394.700043 79.181717,394.179596 67.001007,382.067017 
	C59.467007,374.575104 61.048649,375.705414 54.590405,382.334686 
	C51.333797,385.677521 46.717175,388.017151 45.864494,393.737549 
M372.500000,411.202545 
	C320.362427,411.204346 268.224884,411.205231 216.087311,411.209106 
	C209.591049,411.209595 203.094574,411.199585 196.598633,411.250763 
	C194.727112,411.265472 192.566177,410.995514 192.028732,414.013580 
	C196.312119,415.277435 200.460953,414.501801 204.535095,414.663177 
	C214.425064,415.054932 222.163788,422.747284 222.326553,432.631348 
	C222.433502,439.126038 222.048477,445.642029 222.433823,452.115784 
	C222.992859,461.507507 221.298111,469.694824 211.274033,475.108490 
	C214.217224,475.108490 215.844528,475.108917 217.471832,475.108429 
	C286.433014,475.087372 355.394287,475.017517 424.355194,475.145538 
	C429.403656,475.154938 430.951599,473.706696 430.869843,468.636078 
	C430.593353,451.483612 430.645691,434.321899 430.879242,417.167877 
	C430.940918,412.637146 429.630096,411.050110 424.969940,411.112030 
	C407.815918,411.340118 390.657043,411.202789 372.500000,411.202545 
M317.677612,186.375854 
	C313.008606,181.621674 308.249084,176.951736 303.710999,172.075699 
	C301.623505,169.832733 299.553375,169.443115 296.608215,170.114349 
	C282.793365,173.262863 269.170746,172.294601 255.827393,167.538879 
	C253.440308,166.688095 251.019913,166.335587 248.484451,166.337173 
	C203.657608,166.365204 158.830627,166.406876 114.004089,166.285522 
	C109.667641,166.273788 108.174385,167.609161 108.223465,172.006866 
	C108.420578,189.668793 108.427437,207.335480 108.229431,224.997314 
	C108.181198,229.299423 109.388458,230.756729 113.855888,230.750351 
	C194.844040,230.634644 275.832397,230.673706 356.820679,230.631607 
	C358.128876,230.630920 359.793152,231.381546 361.189362,229.034866 
	C355.875977,223.917252 350.245789,218.948929 345.179565,213.460068 
	C341.618805,209.602325 337.880615,207.818024 332.537170,208.113586 
	C324.729797,208.545471 316.873444,208.386322 309.049286,208.131546 
	C302.378723,207.914322 298.725708,204.227341 298.703949,198.381424 
	C298.681946,192.471588 302.287415,189.134033 309.114380,188.831100 
	C311.776825,188.712982 314.446259,188.761749 317.110718,188.677505 
	C318.399902,188.636749 319.005493,188.116959 317.677612,186.375854 
M199.500000,249.955948 
	C182.179535,249.953735 164.857758,249.818985 147.538971,249.988953 
	C132.177048,250.139694 134.096756,246.885895 133.886322,264.299408 
	C133.837418,268.345032 135.299393,269.744171 139.446579,269.739166 
	C220.886246,269.641052 302.326080,269.673553 383.765869,269.660065 
	C388.683502,269.659241 392.839417,262.678253 389.829468,258.739624 
	C386.179199,253.963135 382.367981,249.710388 374.870056,249.753510 
	C316.748260,250.087799 258.623688,249.947922 199.500000,249.955948 
M286.500000,372.214325 
	C256.119110,372.214325 225.738205,372.214325 195.168320,372.214325 
	C195.657562,375.200897 197.520294,376.208771 198.893021,377.574219 
	C201.283447,379.951996 203.794235,382.482391 204.220078,385.841461 
	C204.920090,391.363007 208.072754,391.933990 212.822708,391.921783 
	C273.125214,391.766693 333.428192,391.800446 393.731049,391.783569 
	C406.744934,391.779938 406.744934,391.775421 406.661804,378.874451 
	C406.619202,372.261963 406.619202,372.229309 399.943359,372.226929 
	C362.462250,372.213593 324.981110,372.217316 286.500000,372.214325 
M431.682159,193.091888 
	C431.687347,186.765991 431.692871,180.440094 431.697632,174.114197 
	C431.703461,166.337128 431.703186,166.337936 423.678711,166.345886 
	C419.849884,166.349670 416.016144,166.229385 412.193542,166.384354 
	C408.146576,166.548416 404.006500,165.636169 400.427765,166.829147 
	C410.767487,177.320663 421.054321,187.758530 431.488007,198.345398 
	C431.554108,196.864212 431.619171,195.405777 431.682159,193.091888 
z"/>
<path fill="#9C9C9C" opacity="1.000000" stroke="none" 
	d="
M184.538208,308.623169 
	C191.222031,302.374176 199.290924,300.743011 206.333191,303.989288 
	C212.889679,307.011627 217.583313,314.703156 217.168625,321.745453 
	C216.715561,329.439606 211.316849,336.207001 203.702240,338.625916 
	C196.700089,340.850281 188.389801,338.220490 184.013397,332.395355 
	C178.348953,324.855804 178.434875,317.635803 184.538208,308.623169 
z"/>
<path fill="#9C9C9C" opacity="1.000000" stroke="none" 
	d="
M259.185760,336.436218 
	C251.385834,340.811035 244.078720,340.501007 237.477997,335.045685 
	C231.781189,330.337341 229.534241,324.033539 231.205780,316.694153 
	C233.085938,308.438629 239.585922,302.989197 247.766647,302.527527 
	C256.644745,302.026550 263.626953,306.391815 266.607178,314.306610 
	C269.698792,322.517090 267.159515,330.354431 259.185760,336.436218 
z"/>
<path fill="#9C9C9C" opacity="1.000000" stroke="none" 
	d="
M154.366653,337.814087 
	C142.682205,341.583496 132.330872,336.734161 129.122879,326.327179 
	C126.123466,316.596863 131.559113,306.143005 141.160736,303.175964 
	C150.162750,300.394135 160.003311,304.739990 163.703873,313.131531 
	C167.845917,322.524231 164.385132,331.978729 154.366653,337.814087 
z"/>
<path fill="#9C9C9C" opacity="1.000000" stroke="none" 
	d="
M113.151077,403.687805 
	C138.595825,403.748688 157.701614,422.762390 157.308655,447.166840 
	C156.959244,468.866974 138.590103,487.532104 116.072906,488.092102 
	C93.274162,488.659119 76.483002,470.939453 73.468292,452.011841 
	C69.976311,430.087646 86.033112,405.782959 113.151077,403.687805 
M93.536629,438.251434 
	C92.124458,441.569427 92.066254,445.059387 92.354294,448.557098 
	C93.356667,460.728790 105.598114,470.178802 118.274200,468.617065 
	C130.292648,467.136353 139.869751,454.512177 137.843948,442.820923 
	C136.016403,432.273773 128.486023,424.609497 118.623970,423.259247 
	C107.619766,421.752625 98.948624,426.751923 93.536629,438.251434 
z"/>
<path fill="#9C9C9C" opacity="1.000000" stroke="none" 
	d="
M314.151550,452.910706 
	C311.844391,452.851654 310.000183,452.920013 308.187683,452.711945 
	C302.097534,452.012878 298.491699,448.094818 298.717896,442.559479 
	C298.947876,436.930878 302.629822,433.708527 309.166595,433.699463 
	C336.974884,433.660889 364.783264,433.682312 392.591614,433.684021 
	C395.588837,433.684204 398.590881,433.592773 401.582275,433.728607 
	C407.244415,433.985748 410.673126,437.287537 411.088013,442.697449 
	C411.468140,447.653931 407.971649,451.792206 402.529327,452.562317 
	C400.234589,452.887024 397.882416,452.893677 395.556274,452.895569 
	C368.580505,452.917389 341.604767,452.910614 314.151550,452.910706 
z"/>
<path fill="#9C9C9C" opacity="1.000000" stroke="none" 
	d="
M240.062714,459.217468 
	C231.179276,452.888214 228.481857,444.225525 232.438660,435.592560 
	C236.231934,427.316376 244.859863,422.993561 253.371277,425.139832 
	C260.852783,427.026398 265.507019,431.807159 267.268799,439.255432 
	C268.954315,446.381317 266.850983,452.600677 261.348419,457.207306 
	C255.030655,462.496460 247.839828,463.086090 240.062714,459.217468 
z"/>
<path fill="#9C9C9C" opacity="1.000000" stroke="none" 
	d="
M196.367828,179.861145 
	C207.902649,179.807526 215.349976,185.929459 217.006378,196.420670 
	C218.255356,204.331238 212.728424,213.112869 204.709549,215.958954 
	C195.142853,219.354355 185.669388,215.060959 181.403427,205.396561 
	C177.600296,196.780731 181.274887,186.479492 189.863235,182.062912 
	C191.756805,181.089142 193.909775,180.619812 196.367828,179.861145 
z"/>
<path fill="#9C9C9C" opacity="1.000000" stroke="none" 
	d="
M251.524826,216.952942 
	C240.632492,217.330566 232.778366,211.329544 230.968079,201.644150 
	C229.309784,192.771988 234.657532,183.794876 243.363937,180.835556 
	C252.898209,177.594849 263.324432,182.685059 266.737335,192.246765 
	C270.182709,201.899414 264.990265,212.734100 255.316544,216.021881 
	C254.221130,216.394196 253.066727,216.592926 251.524826,216.952942 
z"/>
<path fill="#9C9C9C" opacity="1.000000" stroke="none" 
	d="
M156.261627,182.486847 
	C163.463776,187.585907 166.812988,195.172302 164.988922,202.460449 
	C162.981216,210.482422 157.763718,215.338272 149.621277,216.905182 
	C142.748215,218.227768 135.307816,214.774078 131.245316,208.494446 
	C126.835670,201.678223 127.517761,192.413681 132.882111,186.262329 
	C138.670181,179.625076 146.945847,178.201767 156.261627,182.486847 
z"/>
</svg>