<svg xmlns="http://www.w3.org/2000/svg" width="156" height="138" viewBox="0 0 156 138">
<g>
<path d="M 155.93,116.72 L 155.88,114.94 L 155.85,114.15 L 155.78,112.65 L 155.73,112.00 L 155.64,110.78 L 155.59,110.29 L 155.48,109.37 L 155.42,109.03 L 155.36,108.74 L 155.40,108.82 L 155.55,109.42 L 155.62,109.76 L 155.74,110.72 L 155.79,111.25 L 155.86,112.63 L 155.90,113.38 L 155.94,115.24 L 155.97,116.24 L 155.99,118.63 L 156.00,122.89 L 156.00,123.00 M 148.34,103.68 L 149.07,104.47 L 150.43,105.77 L 151.08,106.38 L 152.24,107.30 L 152.78,107.71 L 153.66,108.18 L 154.59,108.33 L 154.76,108.26 L 154.29,108.78 L 154.00,109.92 L 154.00,110.65 L 153.96,112.13 L 153.86,112.66 L 153.73,112.71 L 153.42,112.68 L 153.14,112.48 L 152.49,111.94 L 152.00,111.50 L 150.59,109.86 L 150.00,108.80 L 150.00,108.46 L 149.41,107.44 L 148.55,106.85 L 148.00,106.71 L 146.59,106.60 L 146.00,106.82 L 146.00,107.06 L 145.56,107.51 L 144.91,107.52 L 144.50,107.36 L 143.82,107.23 L 143.47,107.32 L 143.35,107.46 L 143.14,107.80 L 143.08,108.07 L 143.03,108.46 L 143.20,104.89 L 143.50,98.50 M 142.95,110.34 L 142.94,110.36 L 142.99,109.26 M 140.55,109.03 L 140.00,108.50 L 140.00,108.50 M 137.00,78.04 L 137.00,104.35 L 136.97,104.28 L 136.97,104.06 L 136.49,102.37 L 135.82,101.05 L 135.40,100.50 L 134.66,99.00 L 134.33,97.60 L 134.23,96.58 L 134.15,95.50 L 134.12,94.86 L 134.08,93.52 L 134.08,92.74 L 134.07,91.09 L 134.08,90.13 L 134.12,88.14 L 134.14,87.00 L 134.19,82.43 L 134.16,79.66 L 134.12,78.51 L 134.01,76.37 L 133.93,75.64 L 133.85,74.97 L 133.84,74.91 M 68.95,23.03 L 81.50,23.07 L 132.26,73.35 L 130.97,73.00 L 130.25,73.00 L 129.31,72.78 L 128.53,72.41 L 128.02,72.08 L 126.94,71.32 L 126.27,70.78 L 124.82,69.59 L 123.94,68.81 L 122.06,67.12 L 120.93,66.07 L 118.55,63.82 L 117.14,62.46 L 114.19,59.59 L 112.47,57.90 L 108.87,54.34 L 106.80,52.28 L 101.96,47.42 L 99.04,44.46 L 97.74,43.13 L 95.25,40.55 L 94.17,39.40 L 92.11,37.21 L 91.24,36.25 L 89.61,34.44 L 88.95,33.68 L 87.75,32.26 L 87.31,31.70 L 86.55,30.66 L 86.33,30.29 L 86.00,29.65 L 86.00,29.48 L 85.59,27.27 L 85.22,26.75 L 84.95,26.55 L 84.33,26.19 L 83.91,26.06 L 82.98,25.83 L 82.38,25.76 L 81.09,25.65 L 80.29,25.63 L 78.57,25.62 L 77.54,25.65 L 75.35,25.72 L 74.06,25.78 L 71.31,25.90 L 69.72,25.95 L 69.03,25.95 L 66.57,25.93 L 65.67,25.85 L 64.06,25.62 L 63.45,25.42 L 62.35,24.96 L 61.88,24.63 L 59.77,23.48 L 58.42,23.01 M 53.93,20.46 L 53.00,19.50 L 53.93,20.46 Z" fill="rgba(184,15,1,1)"/>
<path d="M 55.86,21.97 L 56.31,22.29 L 57.09,22.72 L 57.97,23.00 L 58.41,23.00 L 59.77,23.48 L 61.88,24.63 L 62.35,24.96 L 63.45,25.42 L 64.06,25.62 L 65.67,25.85 L 66.57,25.93 L 69.03,25.95 L 69.72,25.95 L 71.31,25.90 L 74.06,25.78 L 75.35,25.72 L 77.54,25.65 L 78.57,25.62 L 80.29,25.63 L 81.09,25.65 L 82.38,25.76 L 82.98,25.83 L 83.91,26.06 L 84.33,26.19 L 84.95,26.55 L 85.22,26.75 L 85.59,27.27 L 86.00,29.48 L 86.00,29.65 L 86.33,30.29 L 86.55,30.66 L 87.31,31.70 L 87.75,32.26 L 88.95,33.68 L 89.61,34.44 L 91.24,36.25 L 92.11,37.21 L 94.17,39.40 L 95.25,40.55 L 97.74,43.13 L 99.04,44.46 L 101.96,47.42 L 106.80,52.28 L 108.87,54.34 L 112.47,57.90 L 114.19,59.59 L 117.14,62.46 L 118.55,63.82 L 120.93,66.07 L 122.06,67.12 L 123.94,68.81 L 124.82,69.59 L 126.27,70.78 L 126.94,71.32 L 128.02,72.08 L 128.53,72.41 L 129.31,72.78 L 130.25,73.00 L 130.97,73.00 L 132.33,73.37 L 133.65,74.25 L 133.71,74.33 L 133.80,74.73 L 133.85,74.97 L 133.93,75.64 L 134.01,76.37 L 134.12,78.51 L 134.16,79.66 L 134.19,82.43 L 134.14,87.00 L 134.12,88.14 L 134.08,90.13 L 134.07,91.09 L 134.08,92.74 L 134.08,93.52 L 134.12,94.86 L 134.15,95.50 L 134.23,96.58 L 134.33,97.60 L 134.66,99.00 L 135.40,100.50 L 135.82,101.05 L 136.49,102.37 L 136.97,104.06 L 136.97,104.28 L 137.10,104.59 L 135.92,103.40 L 133.33,100.76 L 128.88,96.23 L 125.40,92.68 L 123.45,90.70 L 119.43,86.61 L 117.25,84.41 L 112.81,79.90 L 110.49,77.55 L 100.96,67.89 L 96.12,63.00 L 91.29,58.12 L 88.93,55.73 L 84.25,51.01 L 82.02,48.76 L 54.08,20.58 M 52.53,19.01 L 49.54,16.00 L 49.61,16.00 M 154.38,109.21 L 154.29,109.75 L 154.13,110.94 L 154.08,111.66 L 154.00,113.17 L 154.00,114.00 L 153.93,116.33 L 153.81,117.69 L 153.73,118.24 L 153.55,119.22 L 153.44,119.53 L 153.20,120.00 L 153.08,120.00 L 152.51,119.61 L 151.77,118.97 L 151.23,118.48 L 150.06,117.40 L 149.34,116.70 L 147.79,115.22 L 146.90,114.35 L 145.03,112.52 L 143.99,111.50 L 142.92,110.43 L 142.95,110.34 L 143.00,109.08 L 143.00,108.67 L 143.08,108.07 L 143.14,107.80 L 143.35,107.46 L 143.47,107.32 L 143.82,107.23 L 144.50,107.36 L 144.91,107.52 L 145.56,107.51 L 146.00,107.06 L 146.00,106.82 L 146.59,106.60 L 148.00,106.71 L 148.55,106.85 L 149.41,107.44 L 150.00,108.46 L 150.00,108.80 L 150.59,109.86 L 152.00,111.50 L 152.49,111.94 L 153.14,112.48 L 153.42,112.68 L 153.73,112.71 L 153.86,112.66 L 153.96,112.13 L 154.00,110.65 L 154.00,109.92 L 154.29,108.78 L 155.00,108.00 L 154.61,108.47 Z" fill="rgba(185,18,3,1)"/>
<path d="M 123.45,90.70 L 125.40,92.68 L 128.88,96.23 L 133.33,100.76 L 135.92,103.40 L 140.71,108.23 L 141.86,109.38 L 143.99,111.50 L 145.03,112.52 L 146.90,114.35 L 147.79,115.22 L 149.34,116.70 L 150.06,117.40 L 151.23,118.48 L 151.77,118.97 L 152.51,119.61 L 153.08,120.00 L 153.20,120.00 L 153.44,119.53 L 153.55,119.22 L 153.73,118.24 L 153.81,117.69 L 153.93,116.33 L 154.00,114.00 L 154.00,113.17 L 154.08,111.66 L 154.13,110.94 L 154.29,109.75 L 154.38,109.21 L 154.61,108.47 L 155.00,108.00 L 155.08,108.00 L 155.22,108.26 L 155.29,108.43 L 155.42,109.03 L 155.48,109.37 L 155.59,110.29 L 155.64,110.78 L 155.73,112.00 L 155.78,112.65 L 155.85,114.15 L 155.88,114.94 L 155.93,116.72 L 156.00,123.00 L 156.00,138.00 L 154.00,137.99 L 154.00,121.08 L 148.78,116.29 L 147.43,115.02 L 146.29,113.91 L 145.61,113.25 L 144.18,111.84 L 143.38,111.05 L 141.73,109.40 L 140.83,108.50 L 137.10,104.74 L 135.11,102.70 L 131.06,98.56 L 129.07,96.50 L 127.43,94.80 L 126.19,93.52 L 125.50,92.82 L 122.58,89.82 L 121.05,88.26 M 122.44,111.97 L 125.22,114.74 L 126.51,116.02 L 129.01,118.50 L 130.17,119.64 L 132.42,121.85 L 133.45,122.86 L 135.45,124.81 L 136.37,125.70 L 138.14,127.41 L 138.95,128.18 L 140.51,129.67 L 141.22,130.33 L 142.58,131.60 L 143.19,132.16 L 145.46,134.21 L 146.36,134.96 L 148.00,136.31 L 148.63,136.76 L 149.45,137.30 L 148.93,137.02 L 147.51,136.01 L 147.12,135.71 L 146.23,134.98 L 145.76,134.59 L 144.69,133.65 L 144.13,133.15 L 142.85,131.98 L 142.18,131.36 L 140.67,129.93 L 139.88,129.18 L 138.10,127.46 L 137.17,126.56 L 135.10,124.53 L 134.02,123.48 L 131.63,121.11 L 130.39,119.88 L 127.64,117.16 L 126.22,115.74 L 123.09,112.63 L 121.47,111.02 L 117.94,107.49 L 121.01,110.55 Z" fill="rgba(12,11,11,1)"/>
<path d="M 117.94,107.49 L 87.37,77.00 L 79.72,77.00 L 72.07,77.00 L 48.78,54.83 L 46.82,52.96 L 43.16,49.47 L 41.37,47.77 L 38.05,44.60 L 36.43,43.06 L 33.44,40.20 L 31.98,38.81 L 29.30,36.25 L 28.00,35.01 L 25.62,32.74 L 24.47,31.63 L 22.38,29.63 L 21.37,28.65 L 19.54,26.90 L 18.67,26.06 L 17.10,24.55 L 16.35,23.82 L 15.02,22.54 L 14.39,21.92 L 13.30,20.85 L 12.78,20.34 L 11.89,19.47 L 11.48,19.05 L 10.79,18.37 L 10.16,17.72 L 9.42,16.93 L 9.00,16.38 L 9.00,16.35 L 9.41,16.30 L 9.68,16.28 L 10.60,16.23 L 11.11,16.21 L 12.47,16.17 L 13.20,16.15 L 14.95,16.11 L 15.87,16.09 L 17.96,16.07 L 19.04,16.05 L 21.40,16.03 L 29.27,16.00 L 49.54,16.00 L 82.07,48.75 L 86.54,53.25 L 95.84,62.65 L 98.15,64.99 L 102.70,69.60 L 104.96,71.88 L 109.29,76.29 L 111.42,78.45 L 115.42,82.52 L 117.36,84.49 L 120.88,88.09 L 122.58,89.82 L 125.50,92.82 L 126.19,93.52 L 127.43,94.80 L 129.07,96.50 L 131.06,98.56 L 135.11,102.70 L 137.10,104.74 L 140.83,108.50 L 141.73,109.40 L 143.38,111.05 L 144.18,111.84 L 145.61,113.25 L 146.29,113.91 L 147.43,115.02 L 148.78,116.29 L 154.00,121.08 L 154.00,129.54 L 154.00,138.00 L 151.25,137.99 L 150.97,137.99 L 150.20,137.71 L 149.77,137.51 L 148.63,136.76 L 148.00,136.31 L 146.36,134.96 L 145.46,134.21 L 143.19,132.16 L 142.58,131.60 L 141.22,130.33 L 140.51,129.67 L 138.95,128.18 L 138.14,127.41 L 136.37,125.70 L 135.45,124.81 L 133.45,122.86 L 132.42,121.85 L 130.17,119.64 L 129.01,118.50 L 126.51,116.02 L 125.22,114.74 L 122.44,111.97 L 121.01,110.55 Z" fill="rgba(222,40,24,1)"/>
</g>
</svg>