<svg
  data-v-0dd9719b=""
  version="1.0"
  xmlns="http://www.w3.org/2000/svg"
  xmlns:xlink="http://www.w3.org/1999/xlink"
  width="100%"
  height="100%"
  viewBox="0 0 340.000000 250.000000"
  preserveAspectRatio="xMidYMid meet"
  color-interpolation-filters="sRGB"
  style="margin: auto"
>
  <g
    data-v-0dd9719b=""
    class="iconmbgsvg"
    transform="translate(84.80500030517578,51.933799743652344)"
  >
    <g fill="#fff" hollow-target="textRect">
      <g
        fill="#fff"
        class="iconsvg-imagesvg icon_container"
        transform="translate(12.128799438476562,0)"
        mask="url(#820e9ddc-cba6-414b-902d-406bd26db385)"
      >
        <rect
          fill="#fff"
          fill-opacity="0"
          stroke-width="2"
          x="0"
          y="0"
          width="146.13240418118468"
          height="146.13240418118468"
          class="image-rect"
        ></rect>
        <svg
          viewBox="0 0 60 60"
          x="0"
          y="0"
          width="146.13240418118468"
          height="146.13240418118468"
          class="image-svg-svg bn"
          style="overflow: visible"
        >
          <g hollow-target="">
            <g>
              <svg
                fill="#000000"
                xmlns="http://www.w3.org/2000/svg"
                xmlns:xlink="http://www.w3.org/1999/xlink"
                xml:space="preserve"
                version="1.1"
                style="
                  shape-rendering: geometricprecision;
                  text-rendering: geometricprecision;
                  overflow: visible;
                "
                viewBox="0 0 204 204"
                x="0"
                y="0"
                fill-rule="evenodd"
                clip-rule="evenodd"
                width="60"
                height="60"
                filtersec="colorsf4175698936"
                filter="url(#0otqXkD90n7chLjxtm-6S)"
              >
                <g transform="scale(1, 1) skewX(0)">
                  <defs>
                    <filter id="0otqXkD90n7chLjxtm-6S">
                      <feColorMatrix
                        type="matrix"
                        values="0 0 0 0 0.99609375  0 0 0 0 0.99609375  0 0 0 0 0.99609375  0 0 0 1 0"
                      ></feColorMatrix>
                    </filter>
                  </defs>
                  <g>
                    <path
                      class="fil0"
                      d="M102 0c56,0 102,46 102,102 0,56 -46,102 -102,102 -56,0 -102,-46 -102,-102 0,-56 46,-102 102,-102zm0 17c-47,0 -85,38 -85,85 0,47 38,86 85,86 47,0 86,-39 86,-86 0,-47 -39,-85 -86,-85z"
                    ></path>
                  </g>
                </g>
              </svg>
            </g>
            <g filter="url(#colors9132030300)">
              <svg
                xmlns="http://www.w3.org/2000/svg"
                xmlns:xlink="http://www.w3.org/1999/xlink"
                viewBox="0 0 39.528000000000006 50.328"
                width="38"
                height="38"
                x="11"
                y="11"
                class="image-svg-letter"
              >
                <path
                  transform="translate(-1.4400000000000002 50.328)"
                  d="M16.63 0L16.63-42.77L1.44-42.77L1.44-50.33L40.97-50.33L40.97-42.77L25.78-42.77L25.78 0L16.63 0Z"
                ></path>
              </svg>
            </g>
          </g>
        </svg>
        <defs>
          <filter id="colors9132030300">
            <feColorMatrix
              type="matrix"
              values="0 0 0 0 0.99609375  0 0 0 0 0.99609375  0 0 0 0 0.99609375  0 0 0 1 0"
              class="icon-fecolormatrix"
            ></feColorMatrix>
          </filter>
          <filter id="colorsf4175698936">
            <feColorMatrix
              type="matrix"
              values="0 0 0 0 0.99609375  0 0 0 0 0.99609375  0 0 0 0 0.99609375  0 0 0 1 0"
              class="icon-fecolormatrix"
            ></feColorMatrix>
          </filter>
          <filter id="colorsb4192174563">
            <feColorMatrix
              type="matrix"
              values="0 0 0 0 0  0 0 0 0 0  0 0 0 0 0  0 0 0 1 0"
              class="icon-fecolormatrix"
            ></feColorMatrix>
          </filter>
        </defs>
      </g>
      <g transform="translate(0,59.581199645996094)">
        <g data-gra="path-name" fill-rule="" class="tp-name">
          <g transform="scale(1)">
            <g>
              <path
                d="M8.55 0L8.55-21.98 0.74-21.98 0.74-25.86 21.05-25.86 21.05-21.98 13.25-21.98 13.25 0 8.55 0ZM24.01 0L24.01-25.86 41.51-25.86 41.51-21.98 28.71-21.98 28.71-14.87 38.22-14.87 38.22-10.99 28.71-10.99 28.71-3.88 41.51-3.88 41.51 0 24.01 0ZM57.39 0.55Q53.32 0.55 50.17-1.09 47.03-2.74 45.29-5.79 43.55-8.84 43.55-12.91L43.55-12.91Q43.55-16.98 45.29-20.04 47.03-23.09 50.17-24.75 53.32-26.42 57.39-26.42L57.39-26.42Q62.75-26.42 66.34-23.86L66.34-23.86 66.34-19.39Q63.12-22.13 57.79-22.13L57.79-22.13Q54.94-22.13 52.8-21 50.65-19.87 49.47-17.8 48.28-15.72 48.28-12.91L48.28-12.91Q48.28-10.1 49.49-8.03 50.69-5.96 52.84-4.83 54.98-3.7 57.79-3.7L57.79-3.7Q60.53-3.7 62.68-4.38 64.82-5.07 66.64-6.59L66.64-6.59 66.64-2.11Q63.23 0.55 57.39 0.55L57.39 0.55ZM70.34 0L70.34-25.86 75.04-25.86 75.04-15.13 87.47-15.13 87.47-25.86 92.13-25.86 92.13 0 87.47 0 87.47-11.25 75.04-11.25 75.04 0 70.34 0ZM102.9 0L102.9-21.98 95.09-21.98 95.09-25.86 115.4-25.86 115.4-21.98 107.6-21.98 107.6 0 102.9 0ZM118.36 0L118.36-25.86 123.06-25.86 123.06 0 118.36 0ZM127.5 0L127.5-25.86 136.16-25.86Q140.38-25.86 143.49-24.31 146.59-22.75 148.26-19.87 149.92-16.98 149.92-13.06L149.92-13.06Q149.92-6.62 146.19-3.31 142.45 0 135.75 0L135.75 0 127.5 0ZM132.2-3.88L135.83-3.88Q140.34-3.88 142.76-6.31 145.19-8.73 145.19-13.06L145.19-13.06Q145.19-15.69 144.12-17.7 143.04-19.72 141.04-20.85 139.05-21.98 136.31-21.98L136.31-21.98 132.2-21.98 132.2-3.88ZM153.62 0L153.62-25.86 171.13-25.86 171.13-21.98 158.32-21.98 158.32-14.87 167.83-14.87 167.83-10.99 158.32-10.99 158.32-3.88 171.13-3.88 171.13 0 153.62 0Z"
                transform="translate(-0.7400000095367432, 26.420000076293945)"
              ></path>
            </g>
          </g>
        </g>
      </g>
    </g>
  </g>
  <mask id="820e9ddc-cba6-414b-902d-406bd26db385">
    <g class="iconsvg-imagesvg icon_container" fill="white">
      <rect
        fill-opacity="1"
        stroke-width="2"
        x="0"
        y="0"
        width="146.13240418118468"
        height="146.13240418118468"
        class="image-rect"
      ></rect>
      <svg
        viewBox="0 0 60 60"
        x="0"
        y="0"
        width="146.13240418118468"
        height="146.13240418118468"
        class="image-svg-svg bn"
        style="overflow: visible"
      >
        <g hollow-target="">
          <g>
            <svg
              xmlns="http://www.w3.org/2000/svg"
              xmlns:xlink="http://www.w3.org/1999/xlink"
              xml:space="preserve"
              version="1.1"
              viewBox="0 0 204 204"
              x="0"
              y="0"
              fill-rule="evenodd"
              clip-rule="evenodd"
              width="60"
              height="60"
              filter="url(#colorsf4175698936)"
            >
              <g transform="scale(1, 1) skewX(0)">
                <defs></defs>
                <g>
                  <path
                    d="M102 0c56,0 102,46 102,102 0,56 -46,102 -102,102 -56,0 -102,-46 -102,-102 0,-56 46,-102 102,-102zm0 17c-47,0 -85,38 -85,85 0,47 38,86 85,86 47,0 86,-39 86,-86 0,-47 -39,-85 -86,-85z"
                  ></path>
                </g>
              </g>
            </svg>
          </g>
          <g>
            <svg
              xmlns="http://www.w3.org/2000/svg"
              xmlns:xlink="http://www.w3.org/1999/xlink"
              viewBox="0 0 39.528000000000006 50.328"
              width="38"
              height="38"
              x="11"
              y="11"
            >
              <path
                transform="translate(-1.4400000000000002 50.328)"
                d="M16.63 0L16.63-42.77L1.44-42.77L1.44-50.33L40.97-50.33L40.97-42.77L25.78-42.77L25.78 0L16.63 0Z"
              ></path>
            </svg>
          </g>
        </g>
      </svg>
      <defs></defs>
    </g>
    <g transform="translate(-12.128799438476562,59.581199645996094)">
      <rect
        fill="black"
        fill-opacity="1"
        x="-3.5"
        y="-3.5"
        width="177.38999938964844"
        height="33.970001220703125"
      ></rect>
      <rect fill="black" fill-opacity="1" x="-3.5" y="-3.5"></rect>
    </g>
    <g
      transform="translate(-12.128799438476562,59.581199645996094)"
      fill="black"
    >
      <g data-gra="path-name" fill-rule="" class="tp-name">
        <g transform="scale(1)">
          <g>
            <path
              d="M8.55 0L8.55-21.98 0.74-21.98 0.74-25.86 21.05-25.86 21.05-21.98 13.25-21.98 13.25 0 8.55 0ZM24.01 0L24.01-25.86 41.51-25.86 41.51-21.98 28.71-21.98 28.71-14.87 38.22-14.87 38.22-10.99 28.71-10.99 28.71-3.88 41.51-3.88 41.51 0 24.01 0ZM57.39 0.55Q53.32 0.55 50.17-1.09 47.03-2.74 45.29-5.79 43.55-8.84 43.55-12.91L43.55-12.91Q43.55-16.98 45.29-20.04 47.03-23.09 50.17-24.75 53.32-26.42 57.39-26.42L57.39-26.42Q62.75-26.42 66.34-23.86L66.34-23.86 66.34-19.39Q63.12-22.13 57.79-22.13L57.79-22.13Q54.94-22.13 52.8-21 50.65-19.87 49.47-17.8 48.28-15.72 48.28-12.91L48.28-12.91Q48.28-10.1 49.49-8.03 50.69-5.96 52.84-4.83 54.98-3.7 57.79-3.7L57.79-3.7Q60.53-3.7 62.68-4.38 64.82-5.07 66.64-6.59L66.64-6.59 66.64-2.11Q63.23 0.55 57.39 0.55L57.39 0.55ZM70.34 0L70.34-25.86 75.04-25.86 75.04-15.13 87.47-15.13 87.47-25.86 92.13-25.86 92.13 0 87.47 0 87.47-11.25 75.04-11.25 75.04 0 70.34 0ZM102.9 0L102.9-21.98 95.09-21.98 95.09-25.86 115.4-25.86 115.4-21.98 107.6-21.98 107.6 0 102.9 0ZM118.36 0L118.36-25.86 123.06-25.86 123.06 0 118.36 0ZM127.5 0L127.5-25.86 136.16-25.86Q140.38-25.86 143.49-24.31 146.59-22.75 148.26-19.87 149.92-16.98 149.92-13.06L149.92-13.06Q149.92-6.62 146.19-3.31 142.45 0 135.75 0L135.75 0 127.5 0ZM132.2-3.88L135.83-3.88Q140.34-3.88 142.76-6.31 145.19-8.73 145.19-13.06L145.19-13.06Q145.19-15.69 144.12-17.7 143.04-19.72 141.04-20.85 139.05-21.98 136.31-21.98L136.31-21.98 132.2-21.98 132.2-3.88ZM153.62 0L153.62-25.86 171.13-25.86 171.13-21.98 158.32-21.98 158.32-14.87 167.83-14.87 167.83-10.99 158.32-10.99 158.32-3.88 171.13-3.88 171.13 0 153.62 0Z"
              transform="translate(-0.7400000095367432, 26.420000076293945)"
            ></path>
          </g>
        </g>
      </g>
    </g>
  </mask>
  <defs v-gra="od"></defs>
</svg>