<?xml version="1.0" encoding="utf-8"?>
<!-- Generator: Adobe Illustrator 16.0.0, SVG Export Plug-In . SVG Version: 6.00 Build 0)  -->
<!DOCTYPE svg PUBLIC "-//W3C//DTD SVG 1.0//EN" "http://www.w3.org/TR/2001/REC-SVG-20010904/DTD/svg10.dtd">
<svg fill="#9C9C9C" version="1.0" id="Layer_1" xmlns="http://www.w3.org/2000/svg" xmlns:xlink="http://www.w3.org/1999/xlink" x="0px" y="0px"
	 width="100px" height="100px" viewBox="0 0 100 100" enable-background="new 0 0 100 100" xml:space="preserve">
<path d="M50.001,57.5c-4.141,0-7.502-3.359-7.502-7.5c0-4.141,3.361-7.499,7.502-7.499h22.298c2.232,0,4.799,1.063,6.379,2.643
	l8.086,8.088l-3.535,3.535l-8.084-8.088c-0.652-0.648-1.928-1.179-2.846-1.179H50.001c-1.381,0-2.5,1.12-2.5,2.5
	c0,1.38,1.119,2.5,2.5,2.5h19.998v5H50.001z"/>
<path d="M50.001,37.501H85v-5H58.562l3.82-3.823c0.645-0.647,1.928-1.178,2.846-1.178H75v-5h-9.772c-2.24,0-4.797,1.062-6.379,2.643
	l-7.357,7.358h-1.49c-9.663,0-17.502,7.838-17.502,17.499c0,9.662,7.839,17.5,17.502,17.5h6.49l7.355,7.357
	c1.582,1.582,4.141,2.643,6.382,2.643H85v-5H70.229c-0.919,0-2.202-0.529-2.847-1.178l-3.82-3.822H77.5v-5H50.001
	c-6.902,0-12.502-5.6-12.502-12.5C37.499,43.099,43.099,37.501,50.001,37.501z"/>
<path d="M53.333,76.668h-3.332c-14.729,0-26.669-11.941-26.669-26.667c0-14.726,11.94-26.666,26.669-26.666h3.332V10h-7.499
	L44.232,17.2c-1.944,0.34-3.826,0.852-5.64,1.512l-4.983-5.436l-7.221,4.166l2.209,7.016c-1.499,1.258-2.886,2.645-4.143,4.143
	l-7.012-2.207l-4.166,7.218l5.433,4.985c-0.661,1.813-1.172,3.692-1.512,5.638L10,45.833v8.333l7.198,1.6
	c0.34,1.945,0.851,3.824,1.512,5.637l-5.433,4.988l4.166,7.221l7.014-2.211c1.256,1.5,2.643,2.885,4.143,4.145l-2.211,7.01
	l7.221,4.17l4.987-5.436c1.811,0.66,3.691,1.172,5.636,1.514L45.834,90h7.499V76.668z"/>
<circle cx="77.5" cy="65" r="5"/>
<circle cx="85" cy="55" r="5"/>
<circle cx="70" cy="55" r="5"/>
<circle cx="85" cy="35.001" r="5"/>
<path d="M88.535,78.535c1.953-1.953,1.953-5.119,0-7.07c-1.953-1.953-5.123-1.953-7.07,0c-1.953,1.951-1.953,5.117,0,7.07
	C83.412,80.488,86.582,80.488,88.535,78.535z"/>
<path d="M78.535,21.465c1.953,1.953,1.953,5.121,0,7.07c-1.953,1.954-5.123,1.954-7.07,0c-1.954-1.949-1.954-5.117,0-7.07
	C73.412,19.512,76.582,19.512,78.535,21.465z"/>
</svg>
