<?xml version="1.0" encoding="iso-8859-1"?>
<!-- Generator: Adobe Illustrator 22.1.0, SVG Export Plug-In . SVG Version: 6.00 Build 0)  -->
<svg version="1.1" id="Layer_5" xmlns="http://www.w3.org/2000/svg" xmlns:xlink="http://www.w3.org/1999/xlink" x="0px" y="0px"
	 viewBox="0 0 64 64" style="enable-background:new 0 0 64 64;" xml:space="preserve">
<g fill="#9C9C9C">
	<path d="M45.194,11.756c-0.06-0.298-0.1-0.598-0.129-0.903c-0.014-0.147-0.038-0.291-0.044-0.44L33,13.691v2.073l12.334-3.363
		C45.275,12.19,45.237,11.972,45.194,11.756z"/>
	<path d="M29.539,24.267c0.473,0.866,0.84,1.797,1.089,2.775l16.811,16.811c0.014-0.015,0.03-0.027,0.044-0.042
		c0.177-0.186,0.362-0.363,0.553-0.533c0.059-0.053,0.115-0.108,0.175-0.159c0.171-0.144,0.35-0.277,0.531-0.408
		c0.074-0.054,0.141-0.116,0.217-0.167L30.105,23.691L29.539,24.267z"/>
	<path d="M45.833,26.243c0.121-0.262,0.254-0.517,0.399-0.765c0.027-0.046,0.055-0.09,0.082-0.135
		c0.145-0.239,0.301-0.47,0.467-0.693c0.015-0.02,0.027-0.043,0.042-0.063l-14.435-6.662l-0.831,0.416
		c-0.11,0.414-0.261,0.813-0.411,1.213l14.649,6.761C45.806,26.29,45.821,26.267,45.833,26.243z"/>
	<circle cx="54" cy="9" r="2"/>
	<path d="M51.034,11.659C50.398,10.951,50,10.025,50,9c0-2.206,1.794-4,4-4s4,1.794,4,4c0,1.025-0.398,1.951-1.034,2.659
		c1.108,0.517,2.055,1.33,2.763,2.351C60.527,12.873,61,11.492,61,10c0-3.859-3.141-7-7-7s-7,3.141-7,7
		c0,1.492,0.473,2.873,1.271,4.01C48.98,12.989,49.927,12.177,51.034,11.659z"/>
	<path d="M49.679,15.496C50.87,16.435,52.369,17,54,17s3.13-0.565,4.321-1.504C57.436,13.961,55.808,13,54,13
		S50.564,13.961,49.679,15.496z"/>
	<circle cx="54" cy="29" r="2"/>
	<path d="M54,23c-3.859,0-7,3.141-7,7c0,1.492,0.473,2.873,1.271,4.01c0.708-1.021,1.655-1.833,2.763-2.351
		C50.398,30.951,50,30.025,50,29c0-2.206,1.794-4,4-4s4,1.794,4,4c0,1.025-0.398,1.951-1.034,2.659
		c1.108,0.517,2.055,1.33,2.763,2.351C60.527,32.873,61,31.492,61,30C61,26.141,57.859,23,54,23z"/>
	<path d="M49.679,35.496C50.87,36.435,52.369,37,54,37s3.13-0.565,4.321-1.504C57.436,33.961,55.808,33,54,33
		S50.564,33.961,49.679,35.496z"/>
	<path d="M54,43c-3.859,0-7,3.141-7,7c0,1.492,0.473,2.873,1.271,4.01c0.708-1.021,1.655-1.833,2.763-2.351
		C50.398,50.951,50,50.025,50,49c0-2.206,1.794-4,4-4s4,1.794,4,4c0,1.025-0.398,1.951-1.034,2.659
		c1.108,0.517,2.055,1.33,2.763,2.351C60.527,52.873,61,51.492,61,50C61,46.141,57.859,43,54,43z"/>
	<circle cx="54" cy="49" r="2"/>
	<path d="M54,53c-1.808,0-3.436,0.961-4.321,2.496C50.87,56.435,52.369,57,54,57s3.13-0.565,4.321-1.504
		C57.436,53.961,55.808,53,54,53z"/>
	<path d="M21,45.764v-0.676c-0.51,0.312-1.046,0.591-1.606,0.831L19,46.088l-0.394-0.169c-0.561-0.24-1.096-0.52-1.606-0.831v0.676
		l2,4L21,45.764z"/>
	<path d="M27,34.384c0,0.892-0.098,1.767-0.279,2.616H27c1.103,0,2-0.897,2-2s-0.897-2-2-2V34.384z"/>
	<polygon points="15.149,47.283 15.801,53.149 17.732,51.701 15.476,47.189 	"/>
	<polygon points="22.851,47.283 22.524,47.189 20.268,51.701 22.199,53.149 	"/>
	<path d="M8.279,17.432c0.274,1.212,0.753,2.364,1.422,3.426l0.253,0.399l-0.417,1.252l0.059,0.059
		c0.437-0.552,0.923-1.061,1.449-1.528C9.722,19.305,9,17.198,9,15C9,9.486,13.486,5,19,5s10,4.486,10,10
		c0,2.198-0.722,4.305-2.045,6.04c0.526,0.467,1.012,0.976,1.449,1.528l0.059-0.059l-0.417-1.252l0.253-0.399
		c0.669-1.062,1.147-2.214,1.422-3.426l0.104-0.462L31,16.382v-2.764l-1.175-0.588l-0.104-0.462
		c-0.274-1.212-0.753-2.364-1.422-3.426l-0.253-0.399l0.417-1.251l-1.955-1.955l-1.251,0.417l-0.399-0.253
		c-1.062-0.669-2.214-1.147-3.426-1.422L20.97,4.175L20.382,3h-2.764L17.03,4.175l-0.462,0.104
		c-1.212,0.274-2.364,0.753-3.426,1.422l-0.399,0.253l-1.251-0.417L9.537,7.492l0.417,1.251L9.701,9.143
		c-0.669,1.062-1.147,2.214-1.422,3.426L8.175,13.03L7,13.618v2.764l1.175,0.588L8.279,17.432z"/>
	<path d="M29,30c0-5.514-4.486-10-10-10S9,24.486,9,30v1.556C9.591,31.212,10.268,31,11,31h1.395c2.16,0,4.253-0.634,6.051-1.832
		L19,28.798l0.555,0.37C21.353,30.366,23.445,31,25.605,31H27c0.732,0,1.409,0.212,2,0.556V30z"/>
	<path d="M29.924,49.304l-5.122-1.464l-1.001,9.01L19,53.25l-4.801,3.601l-1.001-9.01l-5.122,1.464C5.088,50.157,3,52.926,3,56.034
		V61h4v-8h2v8h20v-8h2v8h4v-4.966C35,52.926,32.912,50.157,29.924,49.304z M20,57h-2v-2h2V57z"/>
	<path d="M25,32.98c-2.122-0.099-4.175-0.71-6-1.798c-1.825,1.088-3.878,1.699-6,1.798v1.404c0,4.081,2.341,7.771,6,9.519
		c3.659-1.747,6-5.438,6-9.519V32.98z"/>
	<path d="M22.754,18.61c0.923,0.305,1.793,0.722,2.602,1.23c0.86-1.124,1.397-2.445,1.573-3.84h-3.951
		C22.946,16.897,22.871,17.776,22.754,18.61z"/>
	<path d="M26.411,12h-3.579c0.074,0.657,0.125,1.327,0.149,2h3.95C26.843,13.302,26.667,12.631,26.411,12z"/>
	<path d="M19,7c-0.312,0-0.983,1.023-1.462,3h2.924C19.983,8.023,19.312,7,19,7z"/>
	<path d="M19,18c0.614,0,1.212,0.061,1.802,0.15c0.09-0.689,0.149-1.413,0.177-2.15h-3.958c0.029,0.737,0.087,1.461,0.177,2.15
		C17.788,18.061,18.386,18,19,18z"/>
	<path d="M21.764,7.502c0.312,0.727,0.56,1.579,0.752,2.498h2.719C24.334,8.879,23.137,8.01,21.764,7.502z"/>
	<path d="M11.07,16c0.176,1.395,0.713,2.716,1.573,3.84c0.809-0.508,1.679-0.925,2.602-1.23c-0.116-0.834-0.192-1.713-0.224-2.61
		H11.07z"/>
	<path d="M16.236,7.502C14.863,8.01,13.666,8.879,12.765,10h2.719C15.677,9.081,15.924,8.229,16.236,7.502z"/>
	<path d="M11.069,14h3.95c0.024-0.673,0.075-1.343,0.149-2h-3.579C11.333,12.631,11.157,13.302,11.069,14z"/>
	<path d="M17.019,14h3.961c-0.027-0.723-0.085-1.386-0.161-2h-3.639C17.104,12.614,17.046,13.277,17.019,14z"/>
	<path d="M9,35c0,1.103,0.897,2,2,2h0.279C11.098,36.151,11,35.276,11,34.384V33C9.897,33,9,33.897,9,35z"/>
</g>
</svg>
