<?xml version="1.0" encoding="UTF-8"?>
<!DOCTYPE svg PUBLIC "-//W3C//DTD SVG 1.1//EN" "http://www.w3.org/Graphics/SVG/1.1/DTD/svg11.dtd">
<!-- Creator: CorelDRAW -->
<svg  xmlns="http://www.w3.org/2000/svg" xml:space="preserve" width="1.70666in" height="1.70666in" version="1.1" style="shape-rendering:geometricPrecision; text-rendering:geometricPrecision; image-rendering:optimizeQuality; fill-rule:evenodd; clip-rule:evenodd"
viewBox="0 0 1707 1707"
 xmlns:xlink="http://www.w3.org/1999/xlink">
 <defs>
  <style type="text/css">
   <![CDATA[
    .fil0 {fill:#9C9C9C}
   ]]>
  </style>
 </defs>
 <g  id="Layer_x0020_1">
  <metadata id="CorelCorpID_0Corel-Layer"/>
  <path class="fil0" d="M1363 1446l-283 0c-58,0 -105,-47 -105,-105 0,-46 30,-86 73,-100 1,0 38,-67 115,-50 53,-82 181,-52 192,45 61,-4 113,44 113,105 0,58 -47,105 -105,105zm-224 -218c-53,0 -52,45 -73,49 -75,17 -63,129 14,129l283 0c86,0 86,-130 0,-130 -8,0 -53,16 -48,-18 11,-75 -95,-104 -124,-35 -10,22 -33,5 -52,5z"/>
  <path class="fil0" d="M825 1707c-2,0 -4,-1 -5,-1 -371,-95 -662,-493 -662,-905l0 -292c0,-8 6,-16 14,-19 154,-53 314,-177 325,-333 1,-7 5,-14 12,-17l308 -138c5,-3 11,-3 16,0l308 138c6,3 11,10 11,17 11,156 171,280 326,333 8,3 13,11 13,19l0 292c0,88 -14,178 -41,267 -4,14 -22,19 -32,9 -182,-171 -483,-42 -483,209 0,110 61,209 160,257 13,7 15,25 3,34 -83,61 -173,105 -268,129 -2,0 -4,1 -5,1zm-627 -1184l0 278c0,393 275,772 627,865 78,-21 153,-55 224,-103 -96,-59 -154,-163 -154,-277 0,-272 313,-423 526,-259 20,-76 30,-152 30,-226l0 -278c-148,-55 -318,-177 -338,-351l-288 -130 -289 130c-19,174 -189,296 -338,351z"/>
  <path class="fil0" d="M825 1572c-2,0 -4,-1 -6,-1 -298,-95 -531,-433 -531,-770l0 -205c0,-8 5,-15 12,-18 161,-79 276,-201 313,-335 2,-5 6,-10 11,-12l193 -87c5,-2 11,-2 16,0l192 87c6,2 10,7 11,12 38,134 152,256 314,335 7,3 11,10 11,18 0,136 9,268 -26,403 -8,32 -42,0 -113,0 -240,0 -373,279 -225,465 7,9 5,22 -5,29 -33,22 -139,79 -167,79zm-497 -964l0 193c0,318 218,637 497,730 43,-15 86,-35 127,-60 -168,-244 56,-575 349,-502 28,-118 20,-238 20,-361 -162,-82 -278,-207 -321,-345l-175 -79 -176 79c-42,138 -158,263 -321,345z"/>
  <path class="fil0" d="M682 1235c-19,0 -37,-7 -51,-21l-182 -182c-67,-67 35,-168 102,-101l120 119c6,7 17,7 23,0l405 -404c67,-67 168,35 101,101l-467 468c-13,13 -31,20 -51,20zm-182 -285c-29,0 -42,34 -22,54l182 182c12,12 33,12 45,0l467 -467c30,-30 -16,-74 -45,-45l-405 405c-22,22 -58,22 -80,0l-119 -120c-6,-6 -14,-9 -23,-9z"/>
  <path class="fil0" d="M1222 1613c-181,0 -327,-147 -327,-327 0,-180 146,-327 327,-327 180,0 326,147 326,327 0,180 -146,327 -326,327zm0 -614c-159,0 -287,129 -287,287 0,158 128,287 287,287 158,0 286,-129 286,-287 0,-158 -128,-287 -286,-287z"/>
  <path class="fil0" d="M1058 1279c-25,0 -34,-52 -34,-71 0,-122 167,-159 219,-50 16,32 -34,23 -52,65 -10,22 -33,5 -52,5 -58,0 -48,51 -81,51zm81 -146c-46,0 -81,41 -74,87 25,-26 62,-37 98,-29 8,-13 20,-24 33,-32 -14,-16 -35,-26 -57,-26z"/>
 </g>
</svg>
