<svg version="1.1" id="Layer_1" xmlns="http://www.w3.org/2000/svg" xmlns:xlink="http://www.w3.org/1999/xlink" x="0px" y="0px"
	 width="100%" viewBox="0 0 592 592" enable-background="new 0 0 592 592" xml:space="preserve">
<path fill="#df2919" opacity="1.000000" stroke="none" 
	d="
M593.000000,220.531342 
	C590.276123,228.888153 587.166321,236.590408 582.058350,243.305466 
	C568.835632,260.688477 551.528259,270.314484 529.470154,270.338806 
	C453.972412,270.422058 378.474518,270.376801 302.976654,270.382477 
	C295.357544,270.383026 295.341980,270.389099 295.338867,278.104858 
	C295.330841,298.104309 295.441498,318.104736 295.256958,338.102478 
	C295.216980,342.433411 296.592163,344.002594 300.954437,343.980499 
	C328.286194,343.842072 355.619415,343.799347 382.950714,343.962524 
	C387.217255,343.987976 388.669708,342.163818 389.679047,338.436646 
	C396.869965,311.883118 413.930603,295.326416 440.788574,289.368378 
	C476.975403,281.340851 514.287964,307.307800 519.129028,344.074402 
	C524.076660,381.651276 500.444611,411.249695 467.675507,418.862610 
	C433.628479,426.772430 397.376770,404.146973 389.707764,369.957977 
	C388.809998,365.955597 387.296417,364.130432 382.777405,364.164093 
	C355.613098,364.366180 328.445953,364.330597 301.281036,364.162262 
	C296.769104,364.134308 295.159576,365.437714 295.246368,370.129456 
	C295.514526,384.624054 295.445374,399.128113 295.266602,413.625549 
	C295.218811,417.501678 296.418121,418.972321 300.392120,418.878571 
	C309.386780,418.666351 318.393463,418.670319 327.388092,418.885712 
	C331.307831,418.979584 333.665283,417.763672 335.767426,414.224518 
	C342.434143,403.000519 355.610504,397.881531 367.632294,401.288055 
	C380.268677,404.868683 388.794006,415.963867 388.906403,428.974945 
	C389.014587,441.498413 380.552887,452.685516 368.100220,456.482605 
	C356.215332,460.106567 342.899048,455.423065 336.386230,444.462189 
	C333.736237,440.002319 330.726013,438.815796 325.954315,438.993286 
	C317.466370,439.309082 308.955933,439.197418 300.459595,439.028076 
	C296.602600,438.951202 295.150330,440.310425 295.266205,444.272095 
	C295.509796,452.598114 295.565033,460.944427 295.254852,469.265900 
	C295.087708,473.750000 296.741699,474.961609 301.024536,474.945190 
	C335.189789,474.814026 369.355713,474.875061 403.521454,474.871552 
	C430.854034,474.868744 458.187042,474.780334 485.518768,474.928986 
	C489.939117,474.953003 492.681580,473.893646 495.114258,469.751678 
	C501.664642,458.598724 515.012634,453.990997 527.748047,457.699768 
	C539.630066,461.159973 548.403259,473.191772 548.102173,485.614075 
	C547.801392,498.030548 538.753662,509.550812 526.717041,512.843384 
	C514.348328,516.226807 501.147522,511.092346 494.873047,499.854614 
	C492.826691,496.189545 490.475220,495.223297 486.577606,495.229156 
	C425.079468,495.321320 363.581177,495.283630 302.082916,495.288177 
	C295.364899,495.288666 295.351501,495.324249 295.340698,501.858673 
	C295.327179,510.025085 295.445770,518.193604 295.288055,526.356995 
	C295.221924,529.781250 296.464691,531.119812 299.921967,531.129333 
	C319.056061,531.182251 338.188293,531.704529 357.324646,531.176880 
	C363.142456,531.016479 368.946503,531.626831 374.798004,531.249390 
	C378.405487,531.016602 380.406158,529.753906 382.290527,526.708557 
	C388.766724,516.242249 398.437897,511.277435 410.634949,512.881226 
	C422.793396,514.479919 430.892120,521.554199 434.472504,533.472168 
	C438.427521,546.637146 432.016937,560.922424 419.420593,567.018005 
	C406.650787,573.197510 390.985809,569.405945 383.733398,557.483643 
	C380.637878,552.395020 377.201263,551.133911 371.669403,551.200073 
	C348.340027,551.479126 325.004761,551.401245 301.673218,551.236450 
	C297.540375,551.207275 295.451294,552.084534 294.712646,556.639709 
	C291.561554,576.072571 274.209412,588.701782 255.371429,588.562988 
	C187.210297,588.060913 119.043213,588.375366 50.878384,588.357300 
	C30.270803,588.351868 13.661090,571.827454 13.658297,551.320801 
	C13.643790,444.823669 13.642959,338.326508 13.658036,231.829361 
	C13.660946,211.275467 30.325510,194.635025 50.798698,194.640335 
	C61.798386,194.643173 72.799622,194.541885 83.796890,194.706299 
	C87.499046,194.761627 88.876785,193.492477 88.625160,189.748688 
	C85.832916,148.205292 115.252480,109.823730 158.622208,101.991234 
	C159.276886,101.873001 159.946411,101.700859 160.599930,101.733803 
	C166.427155,102.027603 169.179001,99.229538 171.273834,93.688980 
	C188.326294,48.587688 220.642410,19.958410 267.647064,10.206805 
	C327.264282,-2.161414 383.398804,25.337490 411.075500,77.734062 
	C413.281769,81.910912 415.798248,82.938614 420.046295,82.657333 
	C448.912262,80.745964 473.207977,90.840042 493.502228,111.092155 
	C500.767151,118.342003 506.386017,126.800568 510.725677,136.074661 
	C511.947113,138.684952 513.407776,140.083572 516.446289,139.512863 
	C551.758484,132.880508 583.686584,155.428696 592.297302,186.453369 
	C592.384338,186.766998 592.561157,187.055695 592.848022,187.678009 
	C593.000000,198.687561 593.000000,209.375122 593.000000,220.531342 
M205.487427,71.966927 
	C196.604843,83.858910 190.419525,97.047844 186.643784,111.374649 
	C184.028671,121.297539 184.071777,121.308899 173.720291,121.210205 
	C135.752655,120.848167 105.947624,152.325562 108.286102,190.207581 
	C108.478149,193.318588 109.501335,194.685532 112.759285,194.671204 
	C131.419678,194.589066 150.080719,194.614090 168.741364,194.664612 
	C171.252121,194.671402 172.852966,193.745758 173.617218,191.320511 
	C176.628769,181.763885 183.115311,175.649445 192.240295,171.758453 
	C199.131042,168.820145 201.684906,161.733932 199.022507,154.873749 
	C197.940231,152.085098 197.005646,149.271683 196.601791,146.256180 
	C194.921356,133.708206 200.801331,124.728775 209.433838,116.426872 
	C219.934891,106.328011 231.376434,103.332863 245.025467,108.843658 
	C252.456024,111.843735 259.567871,108.370895 262.720734,100.617897 
	C266.751221,90.706863 274.198120,84.787994 284.549469,82.810028 
	C290.259338,81.718964 296.096161,81.905571 301.960876,82.467186 
	C313.970642,83.617287 322.009216,89.814934 326.654633,100.689621 
	C330.169220,108.917152 336.740051,111.906693 345.158691,108.551186 
	C357.901184,103.472282 368.937469,106.186028 378.680115,115.403870 
	C380.856537,117.463036 382.990265,119.581459 384.991150,121.809525 
	C393.346252,131.113144 395.152527,141.714294 390.841644,153.342255 
	C387.436615,162.526886 389.782043,168.608200 398.888367,172.653671 
	C408.637421,176.984650 414.360260,184.320572 416.531799,194.706680 
	C417.399963,198.858917 417.208160,203.001053 417.153992,207.146133 
	C416.970825,221.160172 410.889191,231.456985 397.622467,236.805893 
	C393.697845,238.388229 391.410919,241.052872 390.073517,244.858398 
	C388.467041,249.429489 389.175690,250.616821 393.984894,250.619873 
	C439.137390,250.648407 484.291229,250.841125 529.441833,250.550461 
	C553.832764,250.393433 574.408997,229.444763 574.668274,205.433762 
	C575.030457,171.895935 541.546082,149.269836 510.494232,162.029633 
	C507.186279,163.388931 504.058044,165.399170 500.588776,165.699341 
	C498.648193,163.712112 498.361938,161.460037 497.865417,159.420761 
	C488.300354,120.135513 448.482269,94.651230 408.119598,104.451950 
	C402.731659,105.760231 399.928528,104.510529 398.739410,99.233009 
	C398.521820,98.267273 398.105865,97.335251 397.698395,96.424835 
	C378.921906,54.470982 346.416718,30.734224 300.833008,27.709429 
	C262.077576,25.137737 230.125671,40.675446 205.487427,71.966927 
M275.110901,536.494507 
	C276.393829,518.198364 274.352997,499.884125 275.409149,481.586456 
	C275.621674,477.904388 274.208618,476.133606 270.177643,476.235565 
	C261.521667,476.454498 252.854752,476.402954 244.195724,476.258484 
	C240.577240,476.198151 239.121460,477.494476 239.203598,481.215485 
	C239.390991,489.706360 239.287384,498.204010 239.275803,506.698853 
	C239.266174,513.766479 239.164444,513.902100 231.967361,513.910217 
	C203.317947,513.942566 174.668472,513.949341 146.019028,513.947266 
	C122.699783,513.945618 99.380135,513.842224 76.061615,513.964172 
	C71.293991,513.989197 69.241257,512.684998 69.507828,507.436188 
	C69.955032,498.630798 69.531776,489.784607 69.685799,480.959259 
	C69.746231,477.496735 68.435783,476.213257 65.001862,476.266388 
	C56.175938,476.402954 47.342667,476.466339 38.520241,476.244446 
	C34.572422,476.145111 33.253361,477.627777 33.270699,481.461304 
	C33.375389,504.613281 33.228535,527.766663 33.390148,550.917969 
	C33.458786,560.750305 41.475906,568.419556 51.399853,568.657654 
	C55.395222,568.753540 59.394669,568.682068 63.392262,568.682129 
	C127.353897,568.683716 191.315521,568.695312 255.277161,568.675903 
	C267.587982,568.672180 275.257416,561.193970 275.520447,548.902161 
	C275.602234,545.081360 275.261627,541.251526 275.110901,536.494507 
M220.067749,134.636017 
	C216.449860,138.353378 215.389725,142.324219 217.825256,147.313416 
	C225.334137,162.695435 215.576736,185.957672 200.066788,190.464325 
	C198.429916,190.939941 196.463150,191.440948 195.817978,193.831650 
	C197.667633,194.753906 199.641724,194.621445 201.580948,194.624817 
	C208.911682,194.637604 216.254395,194.381439 223.568756,194.728607 
	C227.942566,194.936203 229.623978,193.250732 230.580017,189.134277 
	C237.890991,157.655716 265.733795,136.921677 298.125244,138.607666 
	C343.089996,140.948120 372.270752,185.576416 356.530945,227.786133 
	C353.531219,235.830566 348.883606,242.828033 342.955017,250.190582 
	C351.270996,250.935562 358.695343,250.686691 366.109192,250.499146 
	C368.279480,250.444244 368.486267,248.711792 368.766693,246.945892 
	C370.914337,233.422562 376.903656,222.792053 390.549622,217.745789 
	C394.659851,216.225800 396.782501,212.936951 396.694672,208.397125 
	C396.643158,205.732407 396.646576,203.065262 396.691528,200.400314 
	C396.768433,195.839035 394.415436,192.926514 390.493042,191.011032 
	C371.225555,181.601837 364.846039,166.359390 371.879303,146.275497 
	C373.350769,142.073608 372.868103,138.433243 369.786072,135.207138 
	C368.175964,133.521759 366.454834,131.941269 364.866760,130.236176 
	C361.112946,126.205719 356.850677,125.271233 351.772705,127.627380 
	C348.128906,129.318115 344.214478,130.514587 340.189392,130.260864 
	C326.115051,129.373627 314.623505,124.084221 308.910706,110.238785 
	C306.546295,104.508392 302.790405,101.785622 296.626282,102.286362 
	C294.971008,102.420822 293.291748,102.385666 291.630432,102.297371 
	C286.265686,102.012222 282.442932,104.383423 280.886658,109.417877 
	C275.738434,126.071854 251.744629,135.206635 237.044800,127.474480 
	C232.600677,125.136856 228.315918,126.067467 224.807404,129.879532 
	C223.454758,131.349182 221.984146,132.710251 220.067749,134.636017 
M138.500000,439.042847 
	C118.003464,439.039551 97.506912,439.049988 77.010399,439.025635 
	C69.652290,439.016907 69.642021,438.978607 69.633728,431.442657 
	C69.624748,423.277252 69.517998,415.109283 69.691956,406.947540 
	C69.777504,402.933868 68.380608,401.217926 64.187561,401.317993 
	C55.693962,401.520630 47.187069,401.527924 38.695145,401.284576 
	C34.494007,401.164185 33.195126,402.772827 33.239090,406.840149 
	C33.399376,421.669342 33.410744,436.503052 33.209820,451.331421 
	C33.151829,455.611084 34.866924,456.721222 38.836620,456.717377 
	C115.824776,456.642670 192.813049,456.638824 269.801178,456.725952 
	C273.681458,456.730347 275.171783,455.449463 275.173279,451.580444 
	C275.179047,436.444305 275.370239,421.308319 275.469727,406.172119 
	C275.492920,402.648254 273.797028,401.222900 270.172455,401.298645 
	C261.510986,401.479767 252.840805,401.467621 244.178848,401.295776 
	C240.505173,401.222870 239.118912,402.580048 239.194962,406.257599 
	C239.367203,414.586243 239.274872,422.920563 239.268631,431.252594 
	C239.262833,438.980225 239.221909,439.054504 231.485718,439.057526 
	C200.823807,439.069519 170.161911,439.050476 138.500000,439.042847 
M232.377762,364.241364 
	C180.407303,364.233734 128.436829,364.231384 76.466362,364.212067 
	C69.723259,364.209564 69.681541,364.154297 69.652962,357.617432 
	C69.618004,349.622101 69.677002,341.626190 69.611931,333.631226 
	C69.563072,327.627899 68.875893,326.943481 63.065117,326.918549 
	C55.069889,326.884216 47.069542,327.086639 39.080925,326.856506 
	C34.818466,326.733734 33.159260,328.111633 33.226933,332.561981 
	C33.444721,346.883911 33.478703,361.214081 33.226524,375.534760 
	C33.141842,380.343750 34.690300,381.762878 39.505390,381.745056 
	C82.480392,381.585876 125.456276,381.671204 168.431900,381.675903 
	C201.912918,381.679535 235.394043,381.634796 268.874847,381.716919 
	C272.716125,381.726349 275.602997,381.171600 275.385162,376.489380 
	C274.703979,361.847961 275.374664,347.210754 275.488892,332.571869 
	C275.518707,328.753052 274.030548,326.765900 269.839508,326.861450 
	C261.348602,327.055023 252.848343,327.051575 244.356415,326.891907 
	C240.409058,326.817688 239.118378,328.443695 239.202606,332.261658 
	C239.393600,340.919312 239.081238,349.590027 239.359253,358.243011 
	C239.505783,362.803772 237.932312,364.832001 232.377762,364.241364 
M34.394909,252.701752 
	C33.549072,253.407532 33.357323,254.375137 33.356571,255.397202 
	C33.344929,271.229553 33.394379,287.062225 33.293201,302.894012 
	C33.269146,306.657471 35.529060,306.676514 38.231747,306.675873 
	C115.394508,306.657867 192.557312,306.634277 269.719910,306.752045 
	C274.050507,306.758636 275.149292,305.066895 275.115204,301.173737 
	C274.986694,286.509125 274.977448,271.842621 275.063202,257.177612 
	C275.083954,253.628754 273.913910,252.040939 270.151825,252.111740 
	C261.488953,252.274750 252.818390,252.250168 244.155411,252.078278 
	C240.492691,252.005600 239.144699,253.339798 239.222321,257.041565 
	C239.410919,266.037109 239.174805,275.041199 239.331238,284.037964 
	C239.396454,287.787720 238.246628,289.386169 234.204575,289.378937 
	C181.040771,289.283966 127.876678,289.288818 74.712852,289.383453 
	C70.715721,289.390564 69.508354,287.859283 69.580528,284.066589 
	C69.751717,275.070465 69.544067,266.067566 69.661430,257.069672 
	C69.704010,253.805313 68.751556,252.067780 65.167633,252.124680 
	C55.174992,252.283401 45.179848,252.284775 34.394909,252.701752 
M274.638611,198.669617 
	C285.385345,204.446686 292.081238,213.164505 294.525360,225.245438 
	C295.933289,232.204712 295.115784,239.167511 295.265808,246.123901 
	C295.339355,249.536179 296.089172,250.816330 299.908997,250.257950 
	C327.304352,246.253372 344.586792,222.500320 339.695496,195.285507 
	C336.201599,175.845673 318.056641,159.646408 298.374817,158.395737 
	C277.017761,157.038605 257.472351,170.024384 251.098602,189.494522 
	C249.665680,193.871674 251.146988,194.921219 255.108749,194.671600 
	C261.700684,194.256256 268.038116,195.240799 274.638611,198.669617 
M205.500092,214.396393 
	C155.695312,214.399338 105.890549,214.407135 56.085777,214.393799 
	C52.911407,214.392960 49.762745,214.465454 46.666275,215.269852 
	C39.202358,217.208786 33.997528,223.715424 34.082680,231.088623 
	C35.928318,232.137039 37.972126,231.692276 39.926956,231.698380 
	C54.751698,231.744675 69.576630,231.732620 84.401505,231.731644 
	C145.866470,231.727600 207.331421,231.724060 268.796387,231.710922 
	C275.144897,231.709564 276.215332,229.983978 273.210754,224.369812 
	C269.326019,217.111053 262.884705,214.381927 254.972366,214.387817 
	C238.814941,214.399826 222.657516,214.395767 205.500092,214.396393 
M410.781281,337.280151 
	C408.912415,342.295074 407.457397,347.457367 407.400208,352.806610 
	C407.105621,380.357178 430.653992,402.400452 457.907928,399.960785 
	C483.320648,397.685944 503.528778,372.881470 499.451843,347.826202 
	C496.070709,327.047028 480.142792,311.247192 459.759521,308.453003 
	C439.125854,305.624542 419.896240,316.743256 410.781281,337.280151 
M169.744568,476.329071 
	C165.190811,475.631866 164.096375,477.840485 164.233826,482.054291 
	C164.677094,495.644043 162.163620,493.304504 175.759094,493.835327 
	C180.825363,494.033142 181.922028,492.047150 181.763031,487.465363 
	C181.309616,474.399506 183.434479,476.551819 169.744568,476.329071 
M90.401031,493.196991 
	C94.823616,494.317474 99.313873,493.549438 103.771996,493.660828 
	C105.870872,493.713257 106.496140,492.434662 106.754669,490.498077 
	C108.509544,477.353149 106.961555,475.623779 93.806618,476.330475 
	C93.474907,476.348328 93.142410,476.362366 92.810349,476.361084 
	C90.585426,476.352478 89.340729,477.408936 89.417946,479.681366 
	C89.563965,483.979187 88.813469,488.306427 90.401031,493.196991 
M106.768372,405.833954 
	C107.143234,402.292725 105.394188,401.219604 102.051865,401.305145 
	C87.328934,401.681976 89.666718,399.115784 89.298355,413.891144 
	C89.208130,417.510010 90.406807,418.953339 94.133492,418.883575 
	C109.470665,418.596344 106.390541,420.480164 106.768372,405.833954 
M181.668716,406.807861 
	C182.336975,402.196808 179.903397,401.261627 175.844681,401.332947 
	C162.410355,401.569061 164.712433,399.925598 164.206589,412.481476 
	C164.001236,417.578430 165.697845,419.057983 170.687805,418.908264 
	C183.713760,418.517395 181.449524,420.186707 181.668716,406.807861 
M215.089401,476.338226 
	C212.102448,476.332672 209.115494,476.327576 206.128540,476.321411 
	C203.884674,476.316772 201.320877,476.349426 201.561127,479.421326 
	C201.931076,484.151337 199.594254,489.271973 203.378647,493.545044 
	C203.544907,493.732727 204.016220,493.640411 204.341995,493.697998 
	C217.033798,495.942322 219.447403,493.871735 218.977081,481.126953 
	C218.946548,480.300049 218.902374,479.468201 218.779938,478.651337 
	C218.542053,477.064240 217.444870,476.475586 215.089401,476.338226 
M127.130402,413.273499 
	C126.509712,417.746338 128.668655,418.929016 132.875214,418.913940 
	C144.915665,418.870697 144.767471,419.017670 144.676788,407.601685 
	C144.640030,402.975281 143.167374,401.135895 138.272217,401.288452 
	C125.181046,401.696320 127.337807,399.835510 127.130402,413.273499 
M201.468521,415.197266 
	C201.419693,417.630920 202.479431,418.876923 205.046570,418.813843 
	C208.525879,418.728394 212.181656,419.468811 215.454330,418.640472 
	C222.457916,416.867798 217.787476,410.917358 218.825989,406.974701 
	C219.457199,404.578308 219.473709,401.349121 215.314133,401.377106 
	C215.148499,401.378204 214.982422,401.372314 214.817154,401.360931 
	C201.328796,400.433899 201.328781,400.433899 201.434341,413.917389 
	C201.435638,414.083160 201.440445,414.248901 201.468521,415.197266 
M127.333717,478.145935 
	C127.067413,496.983887 125.019203,493.309204 140.153091,493.699738 
	C140.647537,493.712524 141.147217,493.654694 141.639542,493.591461 
	C142.720993,493.452576 143.543320,492.874268 143.820892,491.831360 
	C145.039352,487.253143 144.696091,482.629181 144.062363,478.014771 
	C143.936417,477.097717 143.167526,476.470123 142.323471,476.500061 
	C137.440369,476.673370 132.450729,475.153900 127.333717,478.145935 
M178.085953,343.863678 
	C179.409134,343.741516 181.099319,343.790894 181.325851,342.172577 
	C181.947418,337.732147 183.201263,332.368011 181.038391,329.004303 
	C178.027008,324.321014 171.920731,327.522644 167.185806,327.184998 
	C164.094193,326.964508 164.268692,329.756165 164.306656,331.921387 
	C164.541992,345.341705 162.386429,343.800598 176.187836,343.897461 
	C176.519989,343.899811 176.852203,343.892731 178.085953,343.863678 
M89.378120,332.709381 
	C89.383797,335.202606 89.426369,337.696472 89.386047,340.188934 
	C89.332733,343.485504 91.560043,344.265472 94.033875,343.817047 
	C98.241982,343.054199 103.310005,346.418823 106.609863,341.321320 
	C106.846466,340.955811 106.734665,340.344055 106.731598,339.847107 
	C106.639183,324.925232 108.686493,327.196014 94.351578,326.878265 
	C90.771614,326.798920 88.981720,328.077118 89.378120,332.709381 
M170.650879,252.129349 
	C165.636459,251.361908 164.025650,253.431656 164.224197,258.496155 
	C164.679688,270.114197 162.713745,268.949371 175.012558,269.013275 
	C181.402924,269.046509 181.732269,268.734894 181.648773,262.241974 
	C181.504333,251.009247 183.284027,252.345169 170.650879,252.129349 
M106.722031,255.903244 
	C106.751541,253.858826 106.196243,252.079483 103.762802,252.274017 
	C99.110992,252.645874 94.253799,250.678879 89.822426,253.447861 
	C89.606522,253.582779 89.502113,254.049179 89.505821,254.359314 
	C89.553230,258.318115 89.517319,262.283264 89.753166,266.231873 
	C89.850868,267.867798 91.156540,268.618042 92.820251,268.958466 
	C104.260284,271.299255 106.723877,269.349365 106.726189,257.800385 
	C106.726257,257.469574 106.728355,257.138733 106.722031,255.903244 
M131.795776,343.897095 
	C144.457031,343.938843 145.828140,342.640533 144.521301,331.847076 
	C144.501343,331.682343 144.474426,331.518127 144.461731,331.352875 
	C144.233582,328.379059 142.739822,326.933838 139.647232,326.937744 
	C124.631714,326.956665 127.422165,325.984222 127.153557,338.816559 
	C127.143150,339.313660 127.201431,339.812378 127.187515,340.309174 
	C127.116028,342.862305 128.494827,343.890350 131.795776,343.897095 
M144.163849,260.040283 
	C144.849243,253.027069 144.380783,252.165161 138.862595,252.210297 
	C125.445831,252.320023 127.238167,249.610397 127.245071,265.163849 
	C127.245659,266.482178 127.245445,268.159576 128.802505,268.505493 
	C133.211746,269.485077 137.862869,269.766693 142.077438,268.442261 
	C145.443771,267.384369 143.533981,263.499268 144.163849,260.040283 
M218.926132,333.627258 
	C218.746918,327.012360 218.663223,326.910217 212.139771,326.917511 
	C200.271713,326.930756 202.272964,326.824341 201.775314,336.215363 
	C201.390320,343.480560 201.718185,343.966003 208.965546,343.883911 
	C219.501663,343.764526 218.984802,345.311371 218.926132,333.627258 
M212.376984,269.035828 
	C218.886978,268.828430 218.929321,268.828186 218.888901,262.210358 
	C218.822113,251.272171 220.116791,252.232452 209.232452,252.156204 
	C201.949982,252.105179 201.949707,252.142273 201.934189,259.655090 
	C201.914902,268.993286 201.914917,268.993286 212.376984,269.035828 
M364.625122,421.757172 
	C361.067200,419.662720 357.584442,419.876282 354.505463,422.547272 
	C351.984192,424.734406 350.782898,427.608429 351.809540,431.009369 
	C352.981262,434.890869 355.648499,437.246521 359.669983,437.557281 
	C363.555847,437.857605 366.422058,435.772705 367.941681,432.352173 
	C369.690613,428.415344 368.622833,424.917816 364.625122,421.757172 
M511.956055,480.544464 
	C509.671356,484.573517 510.272430,488.247955 513.507690,491.433990 
	C516.018311,493.906342 519.084045,494.350403 522.281677,492.994263 
	C525.621094,491.578003 527.543335,489.041412 527.668884,485.297485 
	C527.796631,481.490631 525.820923,479.030182 522.601685,477.403198 
	C518.484985,475.322662 515.237000,476.933563 511.956055,480.544464 
M398.383179,542.212585 
	C399.354401,549.647827 407.642853,551.307251 411.541534,548.382629 
	C414.706329,546.008545 416.492859,542.950195 415.132050,538.931763 
	C413.702606,534.710632 410.510620,532.142029 406.110046,532.664978 
	C401.340912,533.231873 398.475006,536.336609 398.383179,542.212585 
z"/>
<path fill="#df2919" opacity="1.000000" stroke="none" 
	d="
M183.130386,534.618591 
	C183.177994,538.862671 183.102264,542.674255 183.224197,546.479492 
	C183.328278,549.727600 182.210007,551.475037 178.664642,551.331421 
	C174.861725,551.177368 171.046814,551.230042 167.239410,551.306030 
	C164.362213,551.363403 162.871246,550.155579 162.972153,547.202087 
	C162.977798,547.036804 162.975540,546.870544 162.966415,546.705383 
	C162.132156,531.610413 164.802719,529.270081 180.123474,531.501770 
	C181.863602,531.755249 182.884369,532.421143 183.130386,534.618591 
z"/>
<path fill="#df2919" opacity="1.000000" stroke="none" 
	d="
M90.354721,531.737671 
	C94.727463,531.477844 98.714653,531.298035 102.702934,531.147400 
	C106.511826,531.003479 108.654961,532.386597 108.324013,536.673157 
	C108.055687,540.148682 108.204109,543.661377 108.266464,547.155884 
	C108.319237,550.113159 106.948692,551.343750 104.019890,551.302002 
	C84.605438,551.025208 88.519249,554.093018 88.585983,535.291931 
	C88.590530,534.010498 88.434967,532.551758 90.354721,531.737671 
z"/>
<path fill="#df2919" opacity="1.000000" stroke="none" 
	d="
M237.769501,542.946045 
	C237.823425,529.778320 236.737671,531.721924 248.726562,531.629028 
	C258.121765,531.556274 258.123108,531.610718 258.107239,541.148682 
	C258.087585,552.960022 258.377991,551.152832 247.811417,551.322021 
	C247.146149,551.332703 246.480545,551.323547 245.815094,551.321716 
	C237.822571,551.299622 237.822571,551.299500 237.769501,542.946045 
z"/>
<path fill="#df2919" opacity="1.000000" stroke="none" 
	d="
M70.411873,535.798035 
	C70.404434,539.716675 70.258553,543.222900 70.433128,546.713196 
	C70.609428,550.237732 69.027710,551.399719 65.670227,551.332703 
	C47.503651,550.970154 51.215645,553.943970 50.653061,536.952393 
	C50.522163,532.998840 51.554771,531.041992 55.942223,531.426331 
	C59.400990,531.729187 62.921734,531.423401 66.409470,531.266296 
	C69.378342,531.132568 70.814377,532.317261 70.411873,535.798035 
z"/>
<path fill="#df2919" opacity="1.000000" stroke="none" 
	d="
M145.341675,542.005371 
	C145.232178,552.156799 146.384796,551.314880 136.522263,551.294861 
	C124.201538,551.269958 125.826454,552.586426 125.664986,540.363647 
	C125.658417,539.866028 125.663330,539.368225 125.663712,538.870544 
	C125.669220,531.593811 125.669243,531.594299 132.909714,531.582642 
	C133.573303,531.581543 134.238953,531.601318 134.900101,531.557739 
	C146.949936,530.763123 145.201492,530.733398 145.341675,542.005371 
z"/>
<path fill="#df2919" opacity="1.000000" stroke="none" 
	d="
M200.663162,545.876038 
	C200.617020,531.262451 200.616089,531.394775 215.008209,531.496765 
	C219.153381,531.526184 220.517288,532.965698 220.384720,537.017822 
	C219.827682,554.045471 223.493912,550.932739 205.466415,551.351135 
	C201.760193,551.437134 200.257004,549.960876 200.663162,545.876038 
z"/>
<path fill="#df2919" opacity="1.000000" stroke="none" 
	d="
M454.886841,325.665527 
	C470.202606,326.331665 482.049072,338.391632 482.318970,353.122406 
	C482.614990,369.282318 471.383820,381.503906 454.934174,382.922089 
	C440.989471,384.124268 427.730255,373.120300 425.574768,358.556366 
	C422.859283,340.208649 435.568207,325.718323 454.886841,325.665527 
M445.915100,350.661469 
	C444.505432,357.294403 447.206421,362.064697 452.692780,362.631805 
	C456.994476,363.076416 460.774780,360.470673 462.008789,356.026825 
	C463.167267,351.855103 461.120056,348.909485 457.819183,346.820679 
	C453.682251,344.202850 450.308502,345.233917 445.915100,350.661469 
z"/>
</svg>