<svg version="1.1" id="Layer_1" xmlns="http://www.w3.org/2000/svg" xmlns:xlink="http://www.w3.org/1999/xlink" x="0px" y="0px"
	 width="100%" viewBox="0 0 528 576" enable-background="new 0 0 528 576" xml:space="preserve">
<path fill="#df2919" opacity="1.000000" stroke="none" 
	d="
M80.747726,310.000000 
	C80.751114,262.169708 80.973320,214.837769 80.613487,167.510254 
	C80.516319,154.729752 89.147415,142.798737 104.377510,143.487946 
	C120.676361,144.225555 137.034622,143.617477 153.366776,143.663086 
	C165.893707,143.698074 174.320328,152.132172 174.391708,164.634064 
	C174.430710,171.466690 174.457932,178.300644 174.364258,185.132248 
	C174.322693,188.164612 175.255844,189.871536 178.632172,189.757385 
	C181.819611,189.649612 185.286530,190.278351 185.466690,185.487213 
	C185.529282,183.822769 185.602448,182.157257 185.603714,180.492188 
	C185.616135,164.326569 185.621017,148.160934 185.614731,131.995316 
	C185.607697,113.957115 190.943466,108.676392 209.227173,108.674263 
	C236.725403,108.671066 264.223633,108.674736 291.721863,108.675018 
	C313.553802,108.675240 335.385712,108.661057 357.217651,108.679634 
	C370.860107,108.691238 377.356049,115.221893 377.368713,128.927032 
	C377.384888,146.425873 377.335785,163.924820 377.377380,181.423569 
	C377.400726,191.249573 377.069153,189.824661 385.669678,189.748993 
	C398.657227,189.634720 409.462708,193.951691 417.392303,204.552933 
	C421.507996,210.055298 423.639374,216.376282 424.061005,223.105270 
	C424.305908,227.013824 425.997589,227.898682 429.390625,227.690048 
	C432.212616,227.516541 435.056335,227.606094 437.887390,227.686157 
	C446.555511,227.931290 452.712677,233.682693 453.156799,242.370422 
	C453.462708,248.354065 453.406555,254.373398 453.168213,260.363098 
	C452.895508,267.216248 448.287720,272.721832 441.655731,274.396851 
	C439.584747,274.919891 437.383209,275.089142 435.236694,275.123260 
	C422.393341,275.327362 424.284607,273.813721 424.253326,286.497284 
	C424.162476,323.327942 424.251251,360.158966 424.228729,396.989868 
	C424.215088,419.348694 409.317230,434.355865 386.997284,434.372101 
	C323.501434,434.418243 260.005493,434.391876 196.509598,434.397003 
	C189.293304,434.397583 189.387405,434.408020 189.255508,441.500702 
	C189.166138,446.305725 189.887527,451.146912 188.513336,455.911743 
	C186.246246,463.772430 179.939545,469.104523 171.799850,469.260529 
	C160.971329,469.468109 150.132599,469.477692 139.304321,469.264435 
	C129.069183,469.062866 121.759018,461.564850 121.673004,451.367065 
	C121.559158,437.868866 121.511787,424.367371 121.701813,410.871033 
	C121.759552,406.770172 120.441261,405.207367 116.272217,405.350708 
	C109.175606,405.594788 102.064514,405.417908 94.561150,405.417908 
	C96.517906,412.313202 100.999153,416.843353 107.233635,419.911774 
	C110.620758,421.578796 112.751305,429.200470 110.654785,432.336731 
	C109.282227,434.389984 107.368713,433.373657 105.681511,432.890076 
	C91.411880,428.799713 80.819992,414.546051 80.770927,398.991821 
	C80.677879,369.494812 80.746429,339.997314 80.747726,310.000000 
M153.546570,434.387390 
	C144.684006,434.371765 144.684006,434.371765 144.654770,428.456848 
	C144.622406,421.906860 144.717087,421.774139 151.331024,421.772430 
	C230.329391,421.752045 309.327789,421.767395 388.326111,421.709259 
	C401.679108,421.699432 411.545349,412.119934 411.572601,398.780334 
	C411.690399,341.115051 411.677429,283.449371 411.591370,225.783981 
	C411.572021,212.825760 401.836823,202.659027 389.019318,202.505386 
	C376.436035,202.354553 377.579803,200.042725 377.381104,213.629303 
	C377.366486,214.629059 377.384155,215.629227 377.382019,216.629211 
	C377.351685,230.823624 370.883545,237.326797 356.629272,237.335663 
	C315.963440,237.360916 275.297577,237.345795 234.631744,237.343094 
	C224.298645,237.342407 213.964539,237.416397 203.632721,237.296768 
	C193.024231,237.173950 185.783264,229.873398 185.644485,219.363510 
	C185.593887,215.530792 185.423981,211.685654 185.654755,207.867096 
	C185.897934,203.843491 184.504639,202.379639 180.288742,202.245438 
	C175.108673,202.080505 174.303345,204.389496 174.311172,208.848480 
	C174.413986,267.347076 174.391846,325.845947 174.350922,384.344727 
	C174.342163,396.869507 165.910797,405.240326 153.348831,405.390472 
	C148.682907,405.446228 144.011230,405.531189 139.350769,405.363556 
	C135.851410,405.237640 134.165756,406.311096 134.209854,410.158844 
	C134.362671,423.490173 134.310150,436.824341 134.258636,450.157166 
	C134.241592,454.567566 136.470779,456.617584 140.680511,456.640472 
	C150.513275,456.693909 160.346558,456.674469 170.179565,456.653748 
	C174.505051,456.644592 176.570358,454.308228 176.625793,450.096863 
	C176.674057,446.430878 176.504440,442.756866 176.688248,439.099304 
	C176.860992,435.662079 175.486069,434.255432 172.035782,434.339111 
	C166.205917,434.480530 160.370285,434.383881 153.546570,434.387390 
M119.500366,156.235641 
	C114.002090,156.236908 108.502686,156.168549 103.005836,156.257812 
	C96.708366,156.360077 93.596924,159.475128 93.381271,165.821915 
	C93.279480,168.817657 93.351624,171.819443 93.351608,174.818481 
	C93.351257,243.630249 93.346794,312.442017 93.358528,381.253784 
	C93.360008,389.905884 96.134247,392.723450 104.594528,392.734894 
	C120.256248,392.756073 135.918076,392.772919 151.579727,392.737976 
	C159.484909,392.720337 161.928238,390.235931 161.953125,382.189880 
	C161.992813,369.360779 161.952499,356.531494 161.951248,343.702271 
	C161.945526,284.887421 161.951202,226.072601 161.926559,167.257767 
	C161.922913,158.582962 159.591660,156.288864 150.990616,156.265640 
	C140.827209,156.238205 130.663696,156.244690 119.500366,156.235641 
M207.723923,224.672607 
	C240.386688,224.671524 273.049652,224.617706 305.711975,224.736008 
	C309.798798,224.750793 311.727112,223.912537 311.701630,219.253357 
	C311.534027,188.591217 311.565399,157.927551 311.671478,127.264862 
	C311.687225,122.712845 309.984039,121.240417 305.439209,121.261147 
	C272.277161,121.412407 239.114059,121.329353 205.951294,121.349518 
	C199.653564,121.353348 198.080048,122.964256 198.073822,129.454193 
	C198.046204,158.284042 198.043961,187.113968 198.068634,215.943817 
	C198.075027,223.415802 199.268829,224.548111 207.723923,224.672607 
M324.247162,133.535126 
	C324.247681,162.013992 324.316040,190.493195 324.175934,218.971375 
	C324.154755,223.269028 325.444427,224.888794 329.887268,224.755981 
	C339.205444,224.477463 348.538300,224.734222 357.863800,224.639984 
	C363.021088,224.587891 364.883759,222.809952 364.893555,217.726944 
	C364.951111,187.915848 364.947662,158.104507 364.890106,128.293396 
	C364.880341,123.241920 363.012604,121.463547 357.840271,121.390701 
	C350.347321,121.285172 342.851624,121.329872 335.357391,121.367004 
	C322.647797,121.429977 324.395966,119.821510 324.247162,133.535126 
M434.157593,262.646484 
	C439.203583,263.075134 441.172668,260.634033 440.684113,255.765976 
	C440.535156,254.281723 440.658295,252.770233 440.655579,251.271225 
	C440.635040,239.828369 440.637512,239.929108 428.941040,240.226883 
	C425.615051,240.311554 424.015839,241.250519 424.179291,244.814301 
	C424.377441,249.135864 424.379364,253.479355 424.193878,257.801666 
	C424.032776,261.556519 425.706146,262.954437 429.272369,262.659607 
	C430.595612,262.550171 431.935791,262.645172 434.157593,262.646484 
z"/>
<path fill="#df2919" opacity="1.000000" stroke="none" 
	d="
M401.116516,357.000000 
	C401.112610,367.319794 401.103760,377.139557 401.108521,386.959351 
	C401.109558,389.136230 401.071991,391.314545 400.009460,393.284485 
	C398.679626,395.750031 396.566498,396.821411 393.784515,396.440643 
	C390.964020,396.054718 389.280701,394.356110 388.809113,391.613251 
	C388.558044,390.152771 388.648621,388.627075 388.648315,387.130829 
	C388.638733,337.199707 388.636444,287.268585 388.636322,237.337479 
	C388.636322,236.006332 388.644531,234.674057 388.697968,233.344269 
	C388.824554,230.194565 390.687103,228.408676 393.581787,227.894562 
	C396.763855,227.329422 399.071106,228.842560 400.355835,231.766617 
	C401.320740,233.962708 401.120239,236.335571 401.120270,238.662582 
	C401.120453,277.941711 401.118195,317.220856 401.116516,357.000000 
z"/>
<path fill="#df2919" opacity="1.000000" stroke="none" 
	d="
M267.437683,308.392944 
	C276.271759,301.794281 284.854370,301.137787 292.684326,306.225586 
	C299.984528,310.969147 303.740814,320.119629 301.774017,328.293304 
	C299.701080,336.908203 294.263855,342.319824 285.713470,344.114563 
	C276.732330,345.999756 268.335114,342.132568 263.805969,334.703308 
	C259.300446,327.312805 259.699921,318.468964 264.901794,311.284943 
	C265.580292,310.347931 266.416168,309.524841 267.437683,308.392944 
M286.954071,329.526581 
	C289.756775,326.527649 290.688080,323.224152 288.322906,319.564758 
	C285.928436,315.859955 281.030670,314.778351 277.330658,317.012695 
	C273.770416,319.162720 272.427490,323.998657 274.433777,327.444733 
	C277.104248,332.031586 280.911560,332.850037 286.954071,329.526581 
z"/>
<path fill="#df2919" opacity="1.000000" stroke="none" 
	d="
M266.044678,362.105133 
	C273.820068,354.887543 282.046509,353.317963 290.492554,357.213318 
	C297.806000,360.586334 302.705658,368.798187 302.298065,376.999420 
	C301.875183,385.508057 296.278229,392.892334 288.138275,395.681000 
	C279.569794,398.616425 270.062531,395.565613 264.697601,388.159027 
	C258.972839,380.255646 259.365723,371.086914 266.044678,362.105133 
M283.779083,383.583282 
	C287.624298,382.113892 289.839478,379.329742 289.482056,375.211243 
	C289.189087,371.835663 287.210388,369.302765 283.759064,368.426636 
	C280.665161,367.641266 277.686615,368.118622 275.578888,370.695984 
	C273.609222,373.104492 272.577606,375.861877 274.087830,379.014679 
	C275.908478,382.815460 278.882629,384.352722 283.779083,383.583282 
z"/>
<path fill="#df2919" opacity="1.000000" stroke="none" 
	d="
M244.314087,375.124542 
	C243.779602,387.356445 236.755814,395.278168 225.670456,396.599762 
	C215.748856,397.782562 206.581604,391.599060 203.632446,381.734650 
	C200.388641,370.884644 206.610931,359.384827 217.520187,356.067780 
	C228.111160,352.847473 239.756500,358.844177 243.160309,369.341553 
	C243.719315,371.065552 243.932663,372.901581 244.314087,375.124542 
M227.929840,369.351959 
	C224.315826,367.452118 220.802536,367.471771 217.811920,370.425568 
	C215.692917,372.518463 214.692261,375.202637 215.765610,378.203949 
	C216.914749,381.417053 219.007553,383.573303 222.656815,383.844421 
	C226.188583,384.106812 228.825378,382.748962 230.527008,379.667847 
	C232.639191,375.843384 231.504395,372.626495 227.929840,369.351959 
z"/>
<path fill="#df2919" opacity="1.000000" stroke="none" 
	d="
M352.842346,391.947021 
	C342.314117,399.027313 331.015778,397.996185 323.783173,389.560272 
	C316.852386,381.476379 317.110229,369.366150 324.374634,361.778595 
	C332.469940,353.323212 345.591064,353.007416 353.978760,361.066071 
	C362.737427,369.481201 362.375458,382.401367 352.842346,391.947021 
M331.403381,375.636566 
	C332.405273,381.530457 335.050873,384.136536 339.900818,383.845734 
	C344.362152,383.578186 346.960266,380.882019 347.473236,376.713196 
	C347.972565,372.655212 345.821472,369.704468 341.872040,368.447998 
	C337.344147,367.007477 333.882050,369.090118 331.567932,374.403931 
	C331.503357,374.552155 331.495483,374.725128 331.403381,375.636566 
z"/>
<path fill="#df2919" opacity="1.000000" stroke="none" 
	d="
M294.491394,255.406586 
	C301.977783,262.101776 304.203522,270.038269 300.856750,279.054352 
	C297.877594,287.080109 291.648376,291.587860 283.120056,292.257843 
	C274.344635,292.947235 267.623413,289.162659 263.318176,281.498688 
	C258.545441,273.002472 260.402191,262.610291 267.626923,256.049042 
	C275.032593,249.323486 285.013947,248.994034 294.491394,255.406586 
M285.725311,278.368195 
	C290.102081,274.160645 290.866058,270.339111 287.826752,266.747894 
	C285.041321,263.456573 281.584076,262.490448 277.629303,264.631226 
	C274.143280,266.518280 272.501373,271.034393 273.955902,274.441162 
	C275.792755,278.743378 279.849976,280.311646 285.725311,278.368195 
z"/>
<path fill="#df2919" opacity="1.000000" stroke="none" 
	d="
M243.681152,276.196686 
	C240.495193,287.895996 229.645706,294.526306 218.685898,291.793121 
	C207.967911,289.120270 200.853760,278.250244 203.056381,267.912079 
	C205.466644,256.599213 215.931915,249.026993 226.472702,250.968948 
	C238.774689,253.235382 245.757431,263.233337 243.681152,276.196686 
M218.120163,277.402679 
	C220.739548,279.630554 223.611206,280.473358 226.864365,278.896637 
	C231.094482,276.846405 232.808792,271.892181 230.679092,267.977844 
	C228.459991,263.899170 223.384705,262.336395 219.604370,264.567780 
	C215.028152,267.268890 214.287201,271.782745 218.120163,277.402679 
z"/>
<path fill="#df2919" opacity="1.000000" stroke="none" 
	d="
M353.781067,286.814575 
	C340.273438,298.274139 322.736328,290.262299 319.496246,276.954285 
	C317.281403,267.857086 320.847626,258.408356 328.897003,253.722168 
	C336.943481,249.037674 347.456573,250.215775 353.862091,256.519806 
	C360.780762,263.328857 362.334991,273.577728 357.585999,281.747650 
	C356.589905,283.461334 355.241516,284.970245 353.781067,286.814575 
M347.336884,273.726501 
	C348.277802,269.821503 346.843109,266.834534 343.590149,264.753632 
	C341.032898,263.117706 338.254913,262.848602 335.588959,264.585022 
	C332.561188,266.557098 330.788391,269.350006 331.524811,273.016418 
	C332.243622,276.595123 334.730988,278.909149 338.294098,279.515320 
	C342.453430,280.222931 345.285095,278.110992 347.336884,273.726501 
z"/>
<path fill="#df2919" opacity="1.000000" stroke="none" 
	d="
M360.151917,326.586304 
	C358.184418,335.984558 352.986847,342.149261 343.946899,344.020874 
	C335.722473,345.723633 328.429810,343.433624 323.110626,336.466675 
	C317.547577,329.180389 317.252533,319.793488 322.304047,312.247711 
	C327.336792,304.729980 336.427429,301.317902 344.998047,303.729797 
	C353.677338,306.172272 359.919495,314.097931 360.283173,323.169067 
	C360.323029,324.163422 360.240021,325.162720 360.151917,326.586304 
M332.972321,328.454315 
	C335.704102,331.980225 339.267365,332.839722 343.113281,330.879028 
	C346.268433,329.270538 348.105835,326.365540 347.524750,322.662628 
	C346.955200,319.033325 344.559967,316.824829 340.997986,315.984589 
	C337.936646,315.262482 335.393524,316.429047 333.414642,318.640442 
	C330.929260,321.417816 330.670502,324.563202 332.972321,328.454315 
z"/>
<path fill="#df2919" opacity="1.000000" stroke="none" 
	d="
M214.452911,305.123108 
	C226.986832,300.318970 238.973099,305.320892 243.043823,316.730774 
	C246.990433,327.792786 241.434540,339.445526 230.329865,343.396545 
	C220.311752,346.960968 209.273315,342.303894 204.752365,332.605560 
	C199.970047,322.346619 203.631836,311.660706 214.452911,305.123108 
M218.240616,317.749786 
	C212.209366,322.693939 216.643723,330.869080 221.840454,331.655396 
	C225.765869,332.249390 228.640167,330.796814 230.577438,327.408997 
	C232.371475,324.271667 231.898682,321.251038 229.563995,318.690186 
	C226.455536,315.280548 222.766800,314.895203 218.240616,317.749786 
z"/>
<path fill="#df2919" opacity="1.000000" stroke="none" 
	d="
M110.377258,353.582092 
	C111.879745,350.489655 114.203560,349.797180 117.074730,349.542511 
	C124.389030,348.893677 131.675095,349.448456 138.971893,349.639252 
	C142.598907,349.734070 145.006638,351.235840 145.293350,355.177429 
	C145.573318,359.025970 143.555817,361.452332 140.019363,361.802917 
	C131.921326,362.605804 123.745537,362.603241 115.657082,361.844360 
	C111.462784,361.450836 109.410652,358.389954 110.377258,353.582092 
z"/>
<path fill="#df2919" opacity="1.000000" stroke="none" 
	d="
M127.010010,186.838593 
	C131.329819,186.863968 135.166870,186.711685 138.976837,186.965759 
	C143.021103,187.235458 145.483414,189.384399 145.279968,193.729279 
	C145.081497,197.967499 142.385422,199.387100 138.566528,199.388809 
	C131.414444,199.391983 124.262367,199.381775 117.110283,199.378540 
	C112.975517,199.376663 110.170601,197.355362 110.113556,193.241272 
	C110.055481,189.052994 113.067421,187.134323 117.036728,186.933273 
	C120.189751,186.773529 123.355331,186.861618 127.010010,186.838593 
z"/>
<path fill="#df2919" opacity="1.000000" stroke="none" 
	d="
M341.423767,154.932175 
	C345.015411,154.971848 348.191406,154.775284 351.300842,155.142639 
	C355.072052,155.588196 357.437866,157.869797 357.118439,161.852188 
	C356.822693,165.539291 354.499054,167.398926 350.753021,167.390854 
	C347.769562,167.384430 344.785370,167.365860 341.802734,167.420517 
	C337.691284,167.495865 333.885895,167.007324 333.621338,161.760345 
	C333.368073,156.737549 336.747925,155.302368 341.423767,154.932175 
z"/>
<path fill="#df2919" opacity="1.000000" stroke="none" 
	d="
M345.001862,201.652405 
	C347.468231,201.676086 349.473694,201.559875 351.448822,201.753586 
	C354.900208,202.092102 356.994263,204.156372 357.125519,207.571381 
	C357.255646,210.956238 355.346893,213.584381 352.009491,213.926468 
	C347.584076,214.380051 343.036102,214.393326 338.616241,213.908218 
	C335.014160,213.512878 333.270386,210.823166 333.592926,207.093094 
	C333.905609,203.476608 336.137054,201.877045 339.547607,201.680191 
	C341.202545,201.584671 342.867096,201.656158 345.001862,201.652405 
z"/>
<path fill="#df2919" opacity="1.000000" stroke="none" 
	d="
M357.012909,139.634308 
	C355.613831,143.228790 353.145111,144.461441 349.816162,144.395035 
	C346.497192,144.328812 343.174744,144.421936 339.856537,144.337540 
	C336.162811,144.243591 333.957458,142.400162 333.656281,138.606018 
	C333.329285,134.487213 335.585846,132.260101 339.378937,131.914062 
	C343.163910,131.568756 347.029114,131.560745 350.814148,131.902756 
	C355.023651,132.283112 357.436768,134.710526 357.012909,139.634308 
z"/>
<path fill="#df2919" opacity="1.000000" stroke="none" 
	d="
M338.783508,190.744095 
	C334.488892,189.529617 333.033875,186.829788 333.784637,183.058685 
	C334.562653,179.150497 337.614716,178.534531 341.011353,178.602783 
	C344.484161,178.672577 347.958832,178.643341 351.432251,178.690796 
	C354.826324,178.737167 356.678406,180.768585 357.072876,183.853470 
	C357.500244,187.195618 355.970337,189.746231 352.539581,190.530090 
	C348.142944,191.534622 343.659607,191.127014 338.783508,190.744095 
z"/>
</svg>